# Blender 5.0.0
# www.blender.org
o Plane
v 0.000000 0.000000 0.000000
v 1.000000 0.000000 0.000000
v 0.000000 1.000000 0.000000
v 1.000000 1.000000 0.000000
v 0.000000 0.500000 0.000000
v 1.000000 0.500000 0.000000
v 0.500000 0.000000 0.000000
v 0.500000 1.000000 0.000000
v 0.500000 0.500000 0.000000
v 0.750000 0.000000 0.000000
v 0.750000 1.000000 0.000000
v 0.750000 0.500000 0.000000
v 0.250000 1.000000 0.000000
v 0.250000 0.500000 0.000000
v 0.250000 0.000000 0.000000
v 1.000000 0.750000 0.000000
v 0.000000 0.750000 0.000000
v 0.500000 0.750000 0.000000
v 0.750000 0.750000 0.000000
v 0.250000 0.750000 0.000000
v 0.000000 0.250000 0.000000
v 1.000000 0.250000 0.000000
v 0.500000 0.250000 0.000000
v 0.750000 0.250000 0.000000
v 0.250000 0.250000 0.000000
v 0.875000 0.000000 0.000000
v 0.875000 1.000000 0.000000
v 0.875000 0.500000 0.000000
v 0.875000 0.750000 0.000000
v 0.875000 0.250000 0.000000
v 0.625000 1.000000 0.000000
v 0.625000 0.500000 0.000000
v 0.625000 0.000000 0.000000
v 0.625000 0.750000 0.000000
v 0.625000 0.250000 0.000000
v 0.375000 0.000000 0.000000
v 0.375000 1.000000 0.000000
v 0.375000 0.500000 0.000000
v 0.375000 0.750000 0.000000
v 0.375000 0.250000 0.000000
v 0.125000 1.000000 0.000000
v 0.125000 0.500000 0.000000
v 0.125000 0.000000 0.000000
v 0.125000 0.750000 0.000000
v 0.125000 0.250000 0.000000
v 1.000000 0.875000 0.000000
v 0.500000 0.875000 0.000000
v 0.750000 0.875000 0.000000
v 0.250000 0.875000 0.000000
v 0.000000 0.875000 0.000000
v 0.875000 0.875000 0.000000
v 0.625000 0.875000 0.000000
v 0.375000 0.875000 0.000000
v 0.125000 0.875000 0.000000
v 0.000000 0.625000 0.000000
v 1.000000 0.625000 0.000000
v 0.500000 0.625000 0.000000
v 0.750000 0.625000 0.000000
v 0.250000 0.625000 0.000000
v 0.875000 0.625000 0.000000
v 0.625000 0.625000 0.000000
v 0.375000 0.625000 0.000000
v 0.125000 0.625000 0.000000
v 1.000000 0.375000 0.000000
v 0.500000 0.375000 0.000000
v 0.750000 0.375000 0.000000
v 0.250000 0.375000 0.000000
v 0.000000 0.375000 0.000000
v 0.875000 0.375000 0.000000
v 0.625000 0.375000 0.000000
v 0.375000 0.375000 0.000000
v 0.125000 0.375000 0.000000
v 0.000000 0.125000 0.000000
v 1.000000 0.125000 0.000000
v 0.500000 0.125000 0.000000
v 0.750000 0.125000 0.000000
v 0.250000 0.125000 0.000000
v 0.875000 0.125000 0.000000
v 0.625000 0.125000 0.000000
v 0.375000 0.125000 0.000000
v 0.125000 0.125000 0.000000
s 0
f 46 27 51
f 64 28 69
f 65 38 71
f 47 37 53
f 66 32 70
f 48 31 52
f 49 41 54
f 67 42 72
f 59 44 63
f 58 34 61
f 57 39 62
f 56 29 60
f 77 45 81
f 76 35 79
f 75 40 80
f 74 30 78
f 78 24 76
f 60 19 58
f 69 12 66
f 51 11 48
f 79 23 75
f 61 18 57
f 52 8 47
f 70 9 65
f 80 25 77
f 62 20 59
f 53 13 49
f 71 14 67
f 81 21 73
f 63 17 55
f 72 5 68
f 54 3 50
f 44 50 17
f 39 49 20
f 34 47 18
f 29 48 19
f 20 54 44
f 19 52 34
f 18 53 39
f 16 51 29
f 42 55 5
f 38 59 14
f 32 57 9
f 28 58 12
f 6 60 28
f 9 62 38
f 12 61 32
f 14 63 42
f 45 68 21
f 40 67 25
f 35 65 23
f 30 66 24
f 25 72 45
f 24 70 35
f 23 71 40
f 22 69 30
f 43 73 1
f 36 77 15
f 33 75 7
f 26 76 10
f 2 78 26
f 7 80 36
f 10 79 33
f 15 81 43
f 46 4 27
f 64 6 28
f 65 9 38
f 47 8 37
f 66 12 32
f 48 11 31
f 49 13 41
f 67 14 42
f 59 20 44
f 58 19 34
f 57 18 39
f 56 16 29
f 77 25 45
f 76 24 35
f 75 23 40
f 74 22 30
f 78 30 24
f 60 29 19
f 69 28 12
f 51 27 11
f 79 35 23
f 61 34 18
f 52 31 8
f 70 32 9
f 80 40 25
f 62 39 20
f 53 37 13
f 71 38 14
f 81 45 21
f 63 44 17
f 72 42 5
f 54 41 3
f 44 54 50
f 39 53 49
f 34 52 47
f 29 51 48
f 20 49 54
f 19 48 52
f 18 47 53
f 16 46 51
f 42 63 55
f 38 62 59
f 32 61 57
f 28 60 58
f 6 56 60
f 9 57 62
f 12 58 61
f 14 59 63
f 45 72 68
f 40 71 67
f 35 70 65
f 30 69 66
f 25 67 72
f 24 66 70
f 23 65 71
f 22 64 69
f 43 81 73
f 36 80 77
f 33 79 75
f 26 78 76
f 2 74 78
f 7 75 80
f 10 76 79
f 15 77 81
