# Blender 5.0.0
# www.blender.org
o Plane
v 0.000000 0.000000 0.000000
v 1.000000 0.000000 0.000000
v 0.000000 1.000000 0.000000
v 1.000000 1.000000 0.000000
v 0.000000 0.500000 0.000000
v 1.000000 0.500000 0.000000
v 0.500000 0.000000 0.000000
v 0.500000 1.000000 0.000000
v 0.500000 0.500000 0.000000
v 0.750000 0.000000 0.000000
v 0.750000 1.000000 0.000000
v 0.750000 0.500000 0.000000
v 0.250000 1.000000 0.000000
v 0.250000 0.500000 0.000000
v 0.250000 0.000000 0.000000
v 1.000000 0.750000 0.000000
v 0.000000 0.750000 0.000000
v 0.500000 0.750000 0.000000
v 0.750000 0.750000 0.000000
v 0.250000 0.750000 0.000000
v 0.000000 0.250000 0.000000
v 1.000000 0.250000 0.000000
v 0.500000 0.250000 0.000000
v 0.750000 0.250000 0.000000
v 0.250000 0.250000 0.000000
s 0
f 16 11 19
f 22 12 24
f 23 14 25
f 18 13 20
f 24 9 23
f 19 8 18
f 20 3 17
f 25 5 21
f 14 17 5
f 12 18 9
f 9 20 14
f 6 19 12
f 15 21 1
f 10 23 7
f 7 25 15
f 2 24 10
f 16 4 11
f 22 6 12
f 23 9 14
f 18 8 13
f 24 12 9
f 19 11 8
f 20 13 3
f 25 14 5
f 14 20 17
f 12 19 18
f 9 18 20
f 6 16 19
f 15 25 21
f 10 24 23
f 7 23 25
f 2 22 24
