# Blender 5.0.0
# www.blender.org
o Plane
v 0.000000 0.000000 0.000000
v 1.000000 0.000000 0.000000
v 0.000000 1.000000 0.000000
v 1.000000 1.000000 0.000000
v 0.000000 0.500000 0.000000
v 1.000000 0.500000 0.000000
v 0.500000 0.000000 0.000000
v 0.500000 1.000000 0.000000
v 0.500000 0.500000 0.000000
v 0.750000 0.000000 0.000000
v 0.750000 1.000000 0.000000
v 0.750000 0.500000 0.000000
v 0.250000 1.000000 0.000000
v 0.250000 0.500000 0.000000
v 0.250000 0.000000 0.000000
v 1.000000 0.750000 0.000000
v 0.000000 0.750000 0.000000
v 0.500000 0.750000 0.000000
v 0.750000 0.750000 0.000000
v 0.250000 0.750000 0.000000
v 0.000000 0.250000 0.000000
v 1.000000 0.250000 0.000000
v 0.500000 0.250000 0.000000
v 0.750000 0.250000 0.000000
v 0.250000 0.250000 0.000000
v 0.875000 0.000000 0.000000
v 0.875000 1.000000 0.000000
v 0.875000 0.500000 0.000000
v 0.875000 0.750000 0.000000
v 0.875000 0.250000 0.000000
v 0.625000 1.000000 0.000000
v 0.625000 0.500000 0.000000
v 0.625000 0.000000 0.000000
v 0.625000 0.750000 0.000000
v 0.625000 0.250000 0.000000
v 0.375000 0.000000 0.000000
v 0.375000 1.000000 0.000000
v 0.375000 0.500000 0.000000
v 0.375000 0.750000 0.000000
v 0.375000 0.250000 0.000000
v 0.125000 1.000000 0.000000
v 0.125000 0.500000 0.000000
v 0.125000 0.000000 0.000000
v 0.125000 0.750000 0.000000
v 0.125000 0.250000 0.000000
v 1.000000 0.875000 0.000000
v 0.500000 0.875000 0.000000
v 0.750000 0.875000 0.000000
v 0.250000 0.875000 0.000000
v 0.000000 0.875000 0.000000
v 0.875000 0.875000 0.000000
v 0.625000 0.875000 0.000000
v 0.375000 0.875000 0.000000
v 0.125000 0.875000 0.000000
v 0.000000 0.625000 0.000000
v 1.000000 0.625000 0.000000
v 0.500000 0.625000 0.000000
v 0.750000 0.625000 0.000000
v 0.250000 0.625000 0.000000
v 0.875000 0.625000 0.000000
v 0.625000 0.625000 0.000000
v 0.375000 0.625000 0.000000
v 0.125000 0.625000 0.000000
v 1.000000 0.375000 0.000000
v 0.500000 0.375000 0.000000
v 0.750000 0.375000 0.000000
v 0.250000 0.375000 0.000000
v 0.000000 0.375000 0.000000
v 0.875000 0.375000 0.000000
v 0.625000 0.375000 0.000000
v 0.375000 0.375000 0.000000
v 0.125000 0.375000 0.000000
v 0.000000 0.125000 0.000000
v 1.000000 0.125000 0.000000
v 0.500000 0.125000 0.000000
v 0.750000 0.125000 0.000000
v 0.250000 0.125000 0.000000
v 0.875000 0.125000 0.000000
v 0.625000 0.125000 0.000000
v 0.375000 0.125000 0.000000
v 0.125000 0.125000 0.000000
v 0.937500 0.000000 0.000000
v 0.937500 1.000000 0.000000
v 0.937500 0.500000 0.000000
v 0.937500 0.750000 0.000000
v 0.937500 0.250000 0.000000
v 0.937500 0.875000 0.000000
v 0.937500 0.625000 0.000000
v 0.937500 0.375000 0.000000
v 0.937500 0.125000 0.000000
v 0.812500 1.000000 0.000000
v 0.812500 0.500000 0.000000
v 0.812500 0.750000 0.000000
v 0.812500 0.250000 0.000000
v 0.812500 0.000000 0.000000
v 0.812500 0.875000 0.000000
v 0.812500 0.625000 0.000000
v 0.812500 0.375000 0.000000
v 0.812500 0.125000 0.000000
v 0.687500 0.000000 0.000000
v 0.687500 1.000000 0.000000
v 0.687500 0.500000 0.000000
v 0.687500 0.750000 0.000000
v 0.687500 0.250000 0.000000
v 0.687500 0.875000 0.000000
v 0.687500 0.625000 0.000000
v 0.687500 0.375000 0.000000
v 0.687500 0.125000 0.000000
v 0.562500 1.000000 0.000000
v 0.562500 0.500000 0.000000
v 0.562500 0.750000 0.000000
v 0.562500 0.250000 0.000000
v 0.562500 0.000000 0.000000
v 0.562500 0.875000 0.000000
v 0.562500 0.625000 0.000000
v 0.562500 0.375000 0.000000
v 0.562500 0.125000 0.000000
v 0.437500 0.000000 0.000000
v 0.437500 1.000000 0.000000
v 0.437500 0.500000 0.000000
v 0.437500 0.750000 0.000000
v 0.437500 0.250000 0.000000
v 0.437500 0.875000 0.000000
v 0.437500 0.625000 0.000000
v 0.437500 0.375000 0.000000
v 0.437500 0.125000 0.000000
v 0.312500 1.000000 0.000000
v 0.312500 0.500000 0.000000
v 0.312500 0.750000 0.000000
v 0.312500 0.250000 0.000000
v 0.312500 0.000000 0.000000
v 0.312500 0.875000 0.000000
v 0.312500 0.625000 0.000000
v 0.312500 0.375000 0.000000
v 0.312500 0.125000 0.000000
v 0.187500 0.000000 0.000000
v 0.187500 1.000000 0.000000
v 0.187500 0.500000 0.000000
v 0.187500 0.750000 0.000000
v 0.187500 0.250000 0.000000
v 0.187500 0.875000 0.000000
v 0.187500 0.625000 0.000000
v 0.187500 0.375000 0.000000
v 0.187500 0.125000 0.000000
v 0.062500 1.000000 0.000000
v 0.062500 0.500000 0.000000
v 0.062500 0.750000 0.000000
v 0.062500 0.250000 0.000000
v 0.062500 0.000000 0.000000
v 0.062500 0.875000 0.000000
v 0.062500 0.625000 0.000000
v 0.062500 0.375000 0.000000
v 0.062500 0.125000 0.000000
v 1.000000 0.937500 0.000000
v 0.500000 0.937500 0.000000
v 0.750000 0.937500 0.000000
v 0.250000 0.937500 0.000000
v 0.875000 0.937500 0.000000
v 0.625000 0.937500 0.000000
v 0.375000 0.937500 0.000000
v 0.125000 0.937500 0.000000
v 0.000000 0.937500 0.000000
v 0.937500 0.937500 0.000000
v 0.812500 0.937500 0.000000
v 0.687500 0.937500 0.000000
v 0.562500 0.937500 0.000000
v 0.437500 0.937500 0.000000
v 0.312500 0.937500 0.000000
v 0.187500 0.937500 0.000000
v 0.062500 0.937500 0.000000
v 0.000000 0.812500 0.000000
v 1.000000 0.812500 0.000000
v 0.500000 0.812500 0.000000
v 0.750000 0.812500 0.000000
v 0.250000 0.812500 0.000000
v 0.875000 0.812500 0.000000
v 0.625000 0.812500 0.000000
v 0.375000 0.812500 0.000000
v 0.125000 0.812500 0.000000
v 0.937500 0.812500 0.000000
v 0.812500 0.812500 0.000000
v 0.687500 0.812500 0.000000
v 0.562500 0.812500 0.000000
v 0.437500 0.812500 0.000000
v 0.312500 0.812500 0.000000
v 0.187500 0.812500 0.000000
v 0.062500 0.812500 0.000000
v 1.000000 0.687500 0.000000
v 0.500000 0.687500 0.000000
v 0.750000 0.687500 0.000000
v 0.250000 0.687500 0.000000
v 0.875000 0.687500 0.000000
v 0.625000 0.687500 0.000000
v 0.375000 0.687500 0.000000
v 0.125000 0.687500 0.000000
v 0.000000 0.687500 0.000000
v 0.937500 0.687500 0.000000
v 0.812500 0.687500 0.000000
v 0.687500 0.687500 0.000000
v 0.562500 0.687500 0.000000
v 0.437500 0.687500 0.000000
v 0.312500 0.687500 0.000000
v 0.187500 0.687500 0.000000
v 0.062500 0.687500 0.000000
v 0.000000 0.562500 0.000000
v 1.000000 0.562500 0.000000
v 0.500000 0.562500 0.000000
v 0.750000 0.562500 0.000000
v 0.250000 0.562500 0.000000
v 0.875000 0.562500 0.000000
v 0.625000 0.562500 0.000000
v 0.375000 0.562500 0.000000
v 0.125000 0.562500 0.000000
v 0.937500 0.562500 0.000000
v 0.812500 0.562500 0.000000
v 0.687500 0.562500 0.000000
v 0.562500 0.562500 0.000000
v 0.437500 0.562500 0.000000
v 0.312500 0.562500 0.000000
v 0.187500 0.562500 0.000000
v 0.062500 0.562500 0.000000
v 1.000000 0.437500 0.000000
v 0.500000 0.437500 0.000000
v 0.750000 0.437500 0.000000
v 0.250000 0.437500 0.000000
v 0.875000 0.437500 0.000000
v 0.625000 0.437500 0.000000
v 0.375000 0.437500 0.000000
v 0.125000 0.437500 0.000000
v 0.000000 0.437500 0.000000
v 0.937500 0.437500 0.000000
v 0.812500 0.437500 0.000000
v 0.687500 0.437500 0.000000
v 0.562500 0.437500 0.000000
v 0.437500 0.437500 0.000000
v 0.312500 0.437500 0.000000
v 0.187500 0.437500 0.000000
v 0.062500 0.437500 0.000000
v 0.000000 0.312500 0.000000
v 1.000000 0.312500 0.000000
v 0.500000 0.312500 0.000000
v 0.750000 0.312500 0.000000
v 0.250000 0.312500 0.000000
v 0.875000 0.312500 0.000000
v 0.625000 0.312500 0.000000
v 0.375000 0.312500 0.000000
v 0.125000 0.312500 0.000000
v 0.937500 0.312500 0.000000
v 0.812500 0.312500 0.000000
v 0.687500 0.312500 0.000000
v 0.562500 0.312500 0.000000
v 0.437500 0.312500 0.000000
v 0.312500 0.312500 0.000000
v 0.187500 0.312500 0.000000
v 0.062500 0.312500 0.000000
v 1.000000 0.187500 0.000000
v 0.500000 0.187500 0.000000
v 0.750000 0.187500 0.000000
v 0.250000 0.187500 0.000000
v 0.875000 0.187500 0.000000
v 0.625000 0.187500 0.000000
v 0.375000 0.187500 0.000000
v 0.125000 0.187500 0.000000
v 0.000000 0.187500 0.000000
v 0.937500 0.187500 0.000000
v 0.812500 0.187500 0.000000
v 0.687500 0.187500 0.000000
v 0.562500 0.187500 0.000000
v 0.437500 0.187500 0.000000
v 0.312500 0.187500 0.000000
v 0.187500 0.187500 0.000000
v 0.062500 0.187500 0.000000
v 0.000000 0.062500 0.000000
v 1.000000 0.062500 0.000000
v 0.500000 0.062500 0.000000
v 0.750000 0.062500 0.000000
v 0.250000 0.062500 0.000000
v 0.875000 0.062500 0.000000
v 0.625000 0.062500 0.000000
v 0.375000 0.062500 0.000000
v 0.125000 0.062500 0.000000
v 0.937500 0.062500 0.000000
v 0.812500 0.062500 0.000000
v 0.687500 0.062500 0.000000
v 0.562500 0.062500 0.000000
v 0.437500 0.062500 0.000000
v 0.312500 0.062500 0.000000
v 0.187500 0.062500 0.000000
v 0.062500 0.062500 0.000000
s 0
f 154 83 163
f 222 84 231
f 223 120 235
f 155 119 167
f 224 102 233
f 156 101 165
f 157 137 169
f 225 138 237
f 191 139 203
f 190 103 199
f 189 121 201
f 188 85 197
f 259 140 271
f 258 104 267
f 257 122 269
f 256 86 265
f 260 94 266
f 192 93 198
f 226 92 232
f 158 91 164
f 261 112 268
f 193 111 200
f 159 109 166
f 227 110 234
f 262 130 270
f 194 129 202
f 160 127 168
f 228 128 236
f 263 148 272
f 195 147 204
f 229 146 238
f 161 145 170
f 179 150 187
f 178 132 185
f 177 114 183
f 176 96 181
f 175 141 186
f 174 105 182
f 173 123 184
f 172 87 180
f 213 151 221
f 212 133 219
f 211 115 217
f 210 97 215
f 206 88 214
f 207 124 218
f 208 106 216
f 209 142 220
f 247 152 255
f 246 134 253
f 245 116 251
f 244 98 249
f 243 143 254
f 242 107 250
f 241 125 252
f 240 89 248
f 281 153 289
f 280 135 287
f 279 117 285
f 278 99 283
f 274 90 282
f 275 126 286
f 276 108 284
f 277 144 288
f 282 78 278
f 248 69 244
f 214 60 210
f 180 51 176
f 265 30 260
f 197 29 192
f 231 28 226
f 163 27 158
f 283 76 276
f 249 66 242
f 215 58 208
f 181 48 174
f 164 11 156
f 232 12 224
f 198 19 190
f 266 24 258
f 284 79 279
f 250 70 245
f 216 61 211
f 182 52 177
f 267 35 261
f 199 34 193
f 165 31 159
f 233 32 227
f 285 75 275
f 251 65 241
f 217 57 207
f 183 47 173
f 234 9 223
f 166 8 155
f 200 18 189
f 268 23 257
f 286 80 280
f 252 71 246
f 218 62 212
f 184 53 178
f 269 40 262
f 201 39 194
f 167 37 160
f 235 38 228
f 287 77 277
f 253 67 243
f 219 59 209
f 185 49 175
f 236 14 225
f 168 13 157
f 202 20 191
f 270 25 259
f 288 81 281
f 254 72 247
f 220 63 213
f 186 54 179
f 271 45 263
f 203 44 195
f 237 42 229
f 169 41 161
f 289 73 273
f 255 68 239
f 221 55 205
f 187 50 171
f 170 3 162
f 238 5 230
f 204 17 196
f 272 21 264
f 150 162 50
f 141 161 54
f 132 157 49
f 123 160 53
f 114 155 47
f 105 159 52
f 96 156 48
f 87 158 51
f 54 170 150
f 53 168 132
f 52 166 114
f 51 164 96
f 49 169 141
f 48 165 105
f 47 167 123
f 46 163 87
f 147 171 17
f 139 179 44
f 129 175 20
f 121 178 39
f 111 173 18
f 103 177 34
f 93 174 19
f 85 176 29
f 16 180 85
f 18 184 121
f 19 182 103
f 20 186 139
f 29 181 93
f 34 183 111
f 39 185 129
f 44 187 147
f 151 196 55
f 142 195 63
f 133 191 59
f 124 194 62
f 115 189 57
f 106 193 61
f 97 190 58
f 88 192 60
f 63 204 151
f 62 202 133
f 61 200 115
f 60 198 97
f 56 197 88
f 57 201 124
f 58 199 106
f 59 203 142
f 146 205 5
f 138 213 42
f 128 209 14
f 120 212 38
f 110 207 9
f 102 211 32
f 92 208 12
f 84 210 28
f 14 220 138
f 12 216 102
f 9 218 120
f 6 214 84
f 28 215 92
f 32 217 110
f 38 219 128
f 42 221 146
f 152 230 68
f 143 229 72
f 134 225 67
f 125 228 71
f 116 223 65
f 107 227 70
f 98 224 66
f 89 226 69
f 72 238 152
f 71 236 134
f 70 234 116
f 69 232 98
f 67 237 143
f 66 233 107
f 65 235 125
f 64 231 89
f 148 239 21
f 140 247 45
f 130 243 25
f 122 246 40
f 112 241 23
f 104 245 35
f 94 242 24
f 86 244 30
f 22 248 86
f 23 252 122
f 24 250 104
f 25 254 140
f 30 249 94
f 35 251 112
f 40 253 130
f 45 255 148
f 153 264 73
f 144 263 81
f 135 259 77
f 126 262 80
f 117 257 75
f 108 261 79
f 99 258 76
f 90 260 78
f 81 272 153
f 80 270 135
f 79 268 117
f 78 266 99
f 74 265 90
f 75 269 126
f 76 267 108
f 77 271 144
f 149 273 1
f 136 281 43
f 131 277 15
f 118 280 36
f 113 275 7
f 100 279 33
f 95 276 10
f 82 278 26
f 15 288 136
f 10 284 100
f 7 286 118
f 2 282 82
f 26 283 95
f 33 285 113
f 36 287 131
f 43 289 149
f 154 4 83
f 222 6 84
f 223 9 120
f 155 8 119
f 224 12 102
f 156 11 101
f 157 13 137
f 225 14 138
f 191 20 139
f 190 19 103
f 189 18 121
f 188 16 85
f 259 25 140
f 258 24 104
f 257 23 122
f 256 22 86
f 260 30 94
f 192 29 93
f 226 28 92
f 158 27 91
f 261 35 112
f 193 34 111
f 159 31 109
f 227 32 110
f 262 40 130
f 194 39 129
f 160 37 127
f 228 38 128
f 263 45 148
f 195 44 147
f 229 42 146
f 161 41 145
f 179 54 150
f 178 53 132
f 177 52 114
f 176 51 96
f 175 49 141
f 174 48 105
f 173 47 123
f 172 46 87
f 213 63 151
f 212 62 133
f 211 61 115
f 210 60 97
f 206 56 88
f 207 57 124
f 208 58 106
f 209 59 142
f 247 72 152
f 246 71 134
f 245 70 116
f 244 69 98
f 243 67 143
f 242 66 107
f 241 65 125
f 240 64 89
f 281 81 153
f 280 80 135
f 279 79 117
f 278 78 99
f 274 74 90
f 275 75 126
f 276 76 108
f 277 77 144
f 282 90 78
f 248 89 69
f 214 88 60
f 180 87 51
f 265 86 30
f 197 85 29
f 231 84 28
f 163 83 27
f 283 99 76
f 249 98 66
f 215 97 58
f 181 96 48
f 164 91 11
f 232 92 12
f 198 93 19
f 266 94 24
f 284 108 79
f 250 107 70
f 216 106 61
f 182 105 52
f 267 104 35
f 199 103 34
f 165 101 31
f 233 102 32
f 285 117 75
f 251 116 65
f 217 115 57
f 183 114 47
f 234 110 9
f 166 109 8
f 200 111 18
f 268 112 23
f 286 126 80
f 252 125 71
f 218 124 62
f 184 123 53
f 269 122 40
f 201 121 39
f 167 119 37
f 235 120 38
f 287 135 77
f 253 134 67
f 219 133 59
f 185 132 49
f 236 128 14
f 168 127 13
f 202 129 20
f 270 130 25
f 288 144 81
f 254 143 72
f 220 142 63
f 186 141 54
f 271 140 45
f 203 139 44
f 237 138 42
f 169 137 41
f 289 153 73
f 255 152 68
f 221 151 55
f 187 150 50
f 170 145 3
f 238 146 5
f 204 147 17
f 272 148 21
f 150 170 162
f 141 169 161
f 132 168 157
f 123 167 160
f 114 166 155
f 105 165 159
f 96 164 156
f 87 163 158
f 54 161 170
f 53 160 168
f 52 159 166
f 51 158 164
f 49 157 169
f 48 156 165
f 47 155 167
f 46 154 163
f 147 187 171
f 139 186 179
f 129 185 175
f 121 184 178
f 111 183 173
f 103 182 177
f 93 181 174
f 85 180 176
f 16 172 180
f 18 173 184
f 19 174 182
f 20 175 186
f 29 176 181
f 34 177 183
f 39 178 185
f 44 179 187
f 151 204 196
f 142 203 195
f 133 202 191
f 124 201 194
f 115 200 189
f 106 199 193
f 97 198 190
f 88 197 192
f 63 195 204
f 62 194 202
f 61 193 200
f 60 192 198
f 56 188 197
f 57 189 201
f 58 190 199
f 59 191 203
f 146 221 205
f 138 220 213
f 128 219 209
f 120 218 212
f 110 217 207
f 102 216 211
f 92 215 208
f 84 214 210
f 14 209 220
f 12 208 216
f 9 207 218
f 6 206 214
f 28 210 215
f 32 211 217
f 38 212 219
f 42 213 221
f 152 238 230
f 143 237 229
f 134 236 225
f 125 235 228
f 116 234 223
f 107 233 227
f 98 232 224
f 89 231 226
f 72 229 238
f 71 228 236
f 70 227 234
f 69 226 232
f 67 225 237
f 66 224 233
f 65 223 235
f 64 222 231
f 148 255 239
f 140 254 247
f 130 253 243
f 122 252 246
f 112 251 241
f 104 250 245
f 94 249 242
f 86 248 244
f 22 240 248
f 23 241 252
f 24 242 250
f 25 243 254
f 30 244 249
f 35 245 251
f 40 246 253
f 45 247 255
f 153 272 264
f 144 271 263
f 135 270 259
f 126 269 262
f 117 268 257
f 108 267 261
f 99 266 258
f 90 265 260
f 81 263 272
f 80 262 270
f 79 261 268
f 78 260 266
f 74 256 265
f 75 257 269
f 76 258 267
f 77 259 271
f 149 289 273
f 136 288 281
f 131 287 277
f 118 286 280
f 113 285 275
f 100 284 279
f 95 283 276
f 82 282 278
f 15 277 288
f 10 276 284
f 7 275 286
f 2 274 282
f 26 278 283
f 33 279 285
f 36 280 287
f 43 281 289
