# Blender 4.5.3 LTS
# www.blender.org
o Icosphere
v 0.000000 -1.000000 0.000000
v 0.723607 -0.447220 0.525725
v -0.276388 -0.447220 0.850649
v -0.894426 -0.447216 0.000000
v -0.276388 -0.447220 -0.850649
v 0.723607 -0.447220 -0.525725
v 0.276388 0.447220 0.850649
v -0.723607 0.447220 0.525725
v -0.723607 0.447220 -0.525725
v 0.276388 0.447220 -0.850649
v 0.894426 0.447216 0.000000
v 0.000000 1.000000 0.000000
v -0.257937 -0.550685 0.793860
v -0.232822 -0.657519 0.716563
v -0.200688 -0.760403 0.617666
v -0.162456 -0.850654 0.499995
v -0.120413 -0.920955 0.370598
v -0.077607 -0.967950 0.238853
v -0.036848 -0.992865 0.113408
v 0.096471 -0.992865 0.070089
v 0.203181 -0.967950 0.147618
v 0.315251 -0.920955 0.229040
v 0.425323 -0.850654 0.309011
v 0.525420 -0.760403 0.381735
v 0.609547 -0.657519 0.442856
v 0.675300 -0.550685 0.490628
v 0.638452 -0.476987 0.604038
v 0.531941 -0.502302 0.681712
v 0.405008 -0.519572 0.752338
v 0.262869 -0.525738 0.809012
v 0.114564 -0.519572 0.846711
v -0.029639 -0.502302 0.864184
v -0.161465 -0.476988 0.863951
v 0.771771 -0.476987 -0.420539
v 0.812729 -0.502301 -0.295238
v 0.840673 -0.519571 -0.152694
v 0.850648 -0.525736 0.000000
v 0.840673 -0.519571 0.152694
v 0.812729 -0.502301 0.295238
v 0.771771 -0.476987 0.420539
v 0.096471 -0.992865 -0.070089
v 0.203181 -0.967950 -0.147618
v 0.315251 -0.920955 -0.229040
v 0.425323 -0.850654 -0.309011
v 0.525420 -0.760403 -0.381735
v 0.609547 -0.657519 -0.442856
v 0.675300 -0.550685 -0.490628
v -0.834716 -0.550681 0.000000
v -0.753442 -0.657515 0.000000
v -0.649456 -0.760399 0.000000
v -0.525730 -0.850652 0.000000
v -0.389673 -0.920953 0.000000
v -0.251147 -0.967949 0.000000
v -0.119245 -0.992865 0.000000
v -0.377183 -0.476988 0.793861
v -0.483971 -0.502302 0.716565
v -0.590366 -0.519572 0.617668
v -0.688189 -0.525736 0.499997
v -0.769872 -0.519570 0.370600
v -0.831051 -0.502299 0.238853
v -0.871565 -0.476984 0.113408
v -0.257937 -0.550685 -0.793860
v -0.232822 -0.657519 -0.716563
v -0.200688 -0.760403 -0.617666
v -0.162456 -0.850654 -0.499995
v -0.120413 -0.920955 -0.370598
v -0.077607 -0.967950 -0.238853
v -0.036848 -0.992865 -0.113408
v -0.871565 -0.476984 -0.113408
v -0.831051 -0.502299 -0.238853
v -0.769872 -0.519570 -0.370600
v -0.688189 -0.525736 -0.499997
v -0.590366 -0.519572 -0.617668
v -0.483971 -0.502302 -0.716565
v -0.377183 -0.476988 -0.793861
v -0.161465 -0.476988 -0.863951
v -0.029639 -0.502302 -0.864184
v 0.114564 -0.519573 -0.846711
v 0.262869 -0.525738 -0.809012
v 0.405008 -0.519572 -0.752338
v 0.531941 -0.502302 -0.681712
v 0.638453 -0.476987 -0.604038
v 0.931188 0.357738 0.070089
v 0.956626 0.251149 0.147618
v 0.964711 0.129893 0.229041
v 0.951058 -0.000000 0.309013
v 0.915098 -0.129893 0.381737
v 0.860698 -0.251151 0.442858
v 0.794547 -0.357741 0.490629
v 0.794547 -0.357741 -0.490629
v 0.860698 -0.251151 -0.442858
v 0.915098 -0.129893 -0.381737
v 0.951058 0.000000 -0.309013
v 0.964711 0.129893 -0.229041
v 0.956626 0.251149 -0.147618
v 0.931188 0.357738 -0.070089
v 0.221089 0.357741 0.907271
v 0.155215 0.251152 0.955422
v 0.080276 0.129894 0.988273
v -0.000000 -0.000000 1.000000
v -0.080276 -0.129894 0.988273
v -0.155215 -0.251152 0.955422
v -0.221089 -0.357741 0.907271
v 0.712150 -0.357741 0.604039
v 0.687159 -0.251152 0.681715
v 0.645839 -0.129894 0.752343
v 0.587786 0.000000 0.809017
v 0.515946 0.129894 0.846716
v 0.436007 0.251152 0.864188
v 0.354409 0.357742 0.863953
v -0.794547 0.357741 0.490629
v -0.860698 0.251151 0.442858
v -0.915098 0.129893 0.381737
v -0.951058 -0.000000 0.309013
v -0.964711 -0.129893 0.229041
v -0.956626 -0.251149 0.147618
v -0.931188 -0.357738 0.070089
v -0.354409 -0.357742 0.863953
v -0.436007 -0.251152 0.864188
v -0.515946 -0.129894 0.846716
v -0.587786 0.000000 0.809017
v -0.645839 0.129894 0.752342
v -0.687159 0.251152 0.681715
v -0.712150 0.357741 0.604039
v -0.712150 0.357741 -0.604039
v -0.687159 0.251152 -0.681715
v -0.645839 0.129894 -0.752343
v -0.587786 -0.000000 -0.809017
v -0.515946 -0.129894 -0.846716
v -0.436007 -0.251152 -0.864188
v -0.354409 -0.357742 -0.863953
v -0.931188 -0.357738 -0.070089
v -0.956626 -0.251149 -0.147618
v -0.964711 -0.129893 -0.229041
v -0.951058 0.000000 -0.309013
v -0.915098 0.129893 -0.381737
v -0.860698 0.251151 -0.442858
v -0.794547 0.357741 -0.490629
v 0.354409 0.357742 -0.863953
v 0.436007 0.251152 -0.864188
v 0.515946 0.129894 -0.846716
v 0.587786 -0.000000 -0.809017
v 0.645839 -0.129894 -0.752342
v 0.687159 -0.251152 -0.681715
v 0.712150 -0.357741 -0.604039
v -0.221089 -0.357741 -0.907271
v -0.155215 -0.251152 -0.955422
v -0.080276 -0.129894 -0.988273
v 0.000000 0.000000 -1.000000
v 0.080276 0.129894 -0.988273
v 0.155215 0.251152 -0.955422
v 0.221089 0.357741 -0.907271
v 0.871565 0.476984 0.113408
v 0.831051 0.502299 0.238853
v 0.769872 0.519570 0.370600
v 0.688189 0.525736 0.499997
v 0.590366 0.519572 0.617668
v 0.483971 0.502302 0.716565
v 0.377183 0.476988 0.793861
v 0.161465 0.476988 0.863951
v 0.029639 0.502302 0.864184
v -0.114564 0.519573 0.846711
v -0.262869 0.525738 0.809012
v -0.405008 0.519572 0.752338
v -0.531941 0.502302 0.681712
v -0.638453 0.476987 0.604038
v -0.771771 0.476987 0.420539
v -0.812729 0.502301 0.295238
v -0.840673 0.519571 0.152694
v -0.850648 0.525736 -0.000000
v -0.840673 0.519571 -0.152694
v -0.812729 0.502301 -0.295238
v -0.771771 0.476987 -0.420539
v -0.638452 0.476987 -0.604038
v -0.531941 0.502302 -0.681712
v -0.405008 0.519572 -0.752338
v -0.262869 0.525738 -0.809012
v -0.114564 0.519572 -0.846711
v 0.029639 0.502302 -0.864184
v 0.161465 0.476988 -0.863951
v 0.377183 0.476988 -0.793861
v 0.483971 0.502302 -0.716565
v 0.590366 0.519572 -0.617668
v 0.688189 0.525736 -0.499997
v 0.769872 0.519570 -0.370600
v 0.831051 0.502299 -0.238853
v 0.871565 0.476984 -0.113408
v 0.036848 0.992865 0.113408
v 0.077607 0.967950 0.238853
v 0.120413 0.920955 0.370598
v 0.162456 0.850654 0.499995
v 0.200688 0.760403 0.617666
v 0.232822 0.657519 0.716563
v 0.257937 0.550685 0.793860
v 0.834716 0.550681 0.000000
v 0.753442 0.657515 0.000000
v 0.649456 0.760399 0.000000
v 0.525730 0.850652 0.000000
v 0.389673 0.920953 0.000000
v 0.251147 0.967949 0.000000
v 0.119245 0.992865 0.000000
v -0.096471 0.992865 0.070089
v -0.203181 0.967950 0.147618
v -0.315251 0.920955 0.229040
v -0.425323 0.850654 0.309011
v -0.525420 0.760403 0.381735
v -0.609547 0.657519 0.442856
v -0.675300 0.550685 0.490628
v -0.096471 0.992865 -0.070089
v -0.203181 0.967950 -0.147618
v -0.315251 0.920955 -0.229040
v -0.425323 0.850654 -0.309011
v -0.525420 0.760403 -0.381735
v -0.609547 0.657519 -0.442856
v -0.675300 0.550685 -0.490628
v 0.036848 0.992865 -0.113408
v 0.077607 0.967950 -0.238853
v 0.120413 0.920955 -0.370598
v 0.162456 0.850654 -0.499995
v 0.200688 0.760403 -0.617666
v 0.232822 0.657519 -0.716563
v 0.257937 0.550685 -0.793860
v 0.166198 0.978672 -0.120749
v 0.307167 0.943208 -0.126518
v 0.215245 0.943209 -0.253036
v 0.451375 0.882854 -0.129731
v 0.361800 0.894429 -0.262863
v 0.262862 0.882855 -0.389192
v 0.587783 0.798549 -0.129731
v 0.506729 0.819912 -0.266403
v 0.409951 0.819913 -0.399604
v 0.305014 0.798552 -0.518924
v 0.706258 0.696558 -0.126519
v 0.638194 0.723610 -0.262864
v 0.550008 0.733353 -0.399605
v 0.447209 0.723612 -0.525728
v 0.338569 0.696561 -0.632593
v 0.801022 0.586331 -0.120750
v 0.747366 0.614342 -0.253038
v 0.672087 0.629942 -0.389194
v 0.577830 0.629943 -0.518926
v 0.471599 0.614344 -0.632594
v 0.362366 0.586334 -0.724502
v -0.063483 0.978672 -0.195376
v -0.025408 0.943209 -0.331227
v -0.174138 0.943209 -0.282901
v 0.016098 0.882855 -0.469369
v -0.138197 0.894430 -0.425319
v -0.288916 0.882855 -0.370262
v 0.058250 0.798552 -0.599101
v -0.096779 0.819914 -0.564248
v -0.253366 0.819914 -0.513369
v -0.399272 0.798552 -0.450440
v 0.097915 0.696561 -0.710785
v -0.052790 0.723612 -0.688185
v -0.210088 0.733355 -0.646571
v -0.361804 0.723612 -0.587778
v -0.497009 0.696561 -0.517479
v 0.132684 0.586334 -0.799129
v -0.009708 0.614345 -0.788978
v -0.162463 0.629944 -0.759458
v -0.314971 0.629944 -0.709904
v -0.455902 0.614344 -0.643998
v -0.577066 0.586334 -0.568513
v -0.205432 0.978671 0.000000
v -0.322868 0.943208 -0.078192
v -0.322868 0.943208 0.078192
v -0.441423 0.882855 -0.160354
v -0.447210 0.894429 0.000000
v -0.441423 0.882855 0.160354
v -0.551779 0.798551 -0.240532
v -0.566539 0.819912 -0.082322
v -0.566539 0.819912 0.082322
v -0.551779 0.798551 0.240532
v -0.645740 0.696561 -0.312768
v -0.670817 0.723611 -0.162457
v -0.679848 0.733353 0.000000
v -0.670817 0.723611 0.162457
v -0.645740 0.696560 0.312768
v -0.719015 0.586334 -0.373135
v -0.753363 0.614343 -0.234576
v -0.772492 0.629942 -0.080177
v -0.772492 0.629942 0.080177
v -0.753363 0.614343 0.234576
v -0.719015 0.586334 0.373135
v -0.063483 0.978672 0.195376
v -0.174138 0.943209 0.282901
v -0.025408 0.943209 0.331227
v -0.288916 0.882855 0.370262
v -0.138197 0.894430 0.425319
v 0.016098 0.882855 0.469369
v -0.399272 0.798552 0.450440
v -0.253366 0.819914 0.513369
v -0.096779 0.819914 0.564248
v 0.058250 0.798552 0.599101
v -0.497009 0.696561 0.517479
v -0.361804 0.723612 0.587778
v -0.210088 0.733355 0.646571
v -0.052790 0.723612 0.688185
v 0.097915 0.696561 0.710785
v -0.577066 0.586334 0.568513
v -0.455902 0.614345 0.643998
v -0.314971 0.629944 0.709904
v -0.162463 0.629944 0.759458
v -0.009708 0.614345 0.788978
v 0.132684 0.586335 0.799129
v 0.166198 0.978672 0.120749
v 0.215245 0.943209 0.253036
v 0.307167 0.943208 0.126518
v 0.262862 0.882855 0.389192
v 0.361800 0.894429 0.262863
v 0.451375 0.882854 0.129731
v 0.305014 0.798552 0.518924
v 0.409951 0.819913 0.399604
v 0.506729 0.819912 0.266403
v 0.587783 0.798549 0.129731
v 0.338569 0.696561 0.632593
v 0.447209 0.723612 0.525728
v 0.550008 0.733353 0.399605
v 0.638194 0.723610 0.262864
v 0.706258 0.696558 0.126519
v 0.362366 0.586334 0.724502
v 0.471599 0.614344 0.632594
v 0.577830 0.629943 0.518926
v 0.672087 0.629942 0.389194
v 0.747366 0.614342 0.253038
v 0.801022 0.586331 0.120750
v 0.903740 0.380897 -0.195376
v 0.921508 0.266063 -0.282902
v 0.854992 0.399094 -0.331229
v 0.918856 0.136410 -0.370264
v 0.861804 0.276396 -0.425322
v 0.782446 0.409229 -0.469371
v 0.892805 -0.000000 -0.450443
v 0.846660 0.140059 -0.513372
v 0.776630 0.280118 -0.564251
v 0.688190 0.409230 -0.599104
v 0.845290 -0.133032 -0.517481
v 0.809019 0.000000 -0.587782
v 0.749882 0.140059 -0.646576
v 0.670821 0.276397 -0.688189
v 0.579226 0.399096 -0.710788
v 0.782501 -0.253933 -0.568515
v 0.753368 -0.133032 -0.644002
v 0.704293 0.000000 -0.709909
v 0.636088 0.136411 -0.759463
v 0.553820 0.266065 -0.788982
v 0.465085 0.380900 -0.799132
v 0.093451 0.380900 -0.919882
v 0.015700 0.266064 -0.963827
v -0.050816 0.399096 -0.915500
v -0.068205 0.136410 -0.988302
v -0.138198 0.276397 -0.951055
v -0.204615 0.409230 -0.889193
v -0.152509 -0.000000 -0.988302
v -0.226618 0.140059 -0.963861
v -0.296648 0.280118 -0.912981
v -0.357124 0.409230 -0.839639
v -0.230948 -0.133033 -0.963829
v -0.309016 -0.000000 -0.951057
v -0.383207 0.140059 -0.912982
v -0.447215 0.276397 -0.850649
v -0.497012 0.399096 -0.770520
v -0.298885 -0.253934 -0.919883
v -0.379680 -0.133033 -0.915503
v -0.457527 -0.000000 -0.889196
v -0.525732 0.136410 -0.839642
v -0.579229 0.266065 -0.770522
v -0.616302 0.380900 -0.689266
v -0.845982 0.380899 -0.373136
v -0.911804 0.266063 -0.312769
v -0.886396 0.399095 -0.234577
v -0.961008 0.136410 -0.240533
v -0.947213 0.276396 -0.162458
v -0.908902 0.409229 -0.080178
v -0.987059 0.000000 -0.160355
v -0.986715 0.140059 -0.082322
v -0.959966 0.280117 0.000000
v -0.908902 0.409229 0.080178
v -0.988023 -0.133031 -0.078192
v -1.000000 0.000001 0.000000
v -0.986715 0.140059 0.082323
v -0.947213 0.276397 0.162458
v -0.886395 0.399095 0.234577
v -0.967222 -0.253931 0.000000
v -0.988023 -0.133030 0.078193
v -0.987059 0.000001 0.160356
v -0.961008 0.136411 0.240534
v -0.911803 0.266065 0.312769
v -0.845982 0.380900 0.373136
v -0.616302 0.380900 0.689266
v -0.579229 0.266064 0.770521
v -0.497012 0.399096 0.770520
v -0.525732 0.136410 0.839641
v -0.447216 0.276397 0.850649
v -0.357124 0.409230 0.839639
v -0.457527 -0.000001 0.889196
v -0.383208 0.140059 0.912982
v -0.296649 0.280118 0.912981
v -0.204616 0.409230 0.889193
v -0.379681 -0.133033 0.915502
v -0.309017 -0.000001 0.951056
v -0.226619 0.140059 0.963861
v -0.138199 0.276397 0.951055
v -0.050817 0.399096 0.915500
v -0.298885 -0.253934 0.919883
v -0.230948 -0.133033 0.963828
v -0.152509 -0.000000 0.988302
v -0.068206 0.136410 0.988302
v 0.015699 0.266064 0.963827
v 0.093451 0.380900 0.919882
v 0.465085 0.380900 0.799132
v 0.553820 0.266064 0.788983
v 0.579226 0.399096 0.710788
v 0.636088 0.136410 0.759463
v 0.670820 0.276396 0.688190
v 0.688190 0.409229 0.599104
v 0.704293 -0.000001 0.709909
v 0.749882 0.140058 0.646576
v 0.776630 0.280116 0.564252
v 0.782446 0.409228 0.469372
v 0.753368 -0.133034 0.644002
v 0.809019 -0.000002 0.587783
v 0.846659 0.140057 0.513373
v 0.861804 0.276394 0.425323
v 0.854992 0.399093 0.331230
v 0.782501 -0.253934 0.568515
v 0.845289 -0.133034 0.517482
v 0.892805 -0.000002 0.450444
v 0.918856 0.136407 0.370266
v 0.921508 0.266061 0.282904
v 0.903740 0.380896 0.195377
v 0.298886 0.253934 -0.919883
v 0.379681 0.133033 -0.915502
v 0.230948 0.133033 -0.963828
v 0.457527 -0.000000 -0.889196
v 0.309017 -0.000000 -0.951056
v 0.152509 0.000000 -0.988302
v 0.525732 -0.136411 -0.839641
v 0.383207 -0.140060 -0.912982
v 0.226619 -0.140060 -0.963861
v 0.068205 -0.136410 -0.988302
v 0.579229 -0.266065 -0.770521
v 0.447216 -0.276398 -0.850648
v 0.296648 -0.280119 -0.912980
v 0.138199 -0.276398 -0.951055
v -0.015699 -0.266065 -0.963827
v 0.616302 -0.380900 -0.689265
v 0.497012 -0.399097 -0.770520
v 0.357124 -0.409231 -0.839639
v 0.204615 -0.409231 -0.889192
v 0.050817 -0.399097 -0.915500
v -0.093451 -0.380900 -0.919881
v -0.782501 0.253934 -0.568515
v -0.753368 0.133032 -0.644002
v -0.845290 0.133032 -0.517482
v -0.704293 -0.000000 -0.709910
v -0.809018 -0.000000 -0.587783
v -0.892805 0.000000 -0.450444
v -0.636087 -0.136411 -0.759464
v -0.749881 -0.140059 -0.646577
v -0.846659 -0.140059 -0.513374
v -0.918856 -0.136410 -0.370265
v -0.553819 -0.266065 -0.788983
v -0.670819 -0.276397 -0.688191
v -0.776628 -0.280118 -0.564253
v -0.861803 -0.276396 -0.425324
v -0.921507 -0.266063 -0.282904
v -0.465084 -0.380900 -0.799132
v -0.579224 -0.399096 -0.710789
v -0.688189 -0.409230 -0.599106
v -0.782445 -0.409229 -0.469374
v -0.854991 -0.399094 -0.331231
v -0.903739 -0.380897 -0.195378
v -0.782501 0.253934 0.568515
v -0.845290 0.133032 0.517482
v -0.753368 0.133032 0.644002
v -0.892805 -0.000000 0.450444
v -0.809018 0.000000 0.587783
v -0.704293 0.000000 0.709910
v -0.918856 -0.136410 0.370265
v -0.846659 -0.140059 0.513374
v -0.749881 -0.140059 0.646577
v -0.636087 -0.136411 0.759464
v -0.921508 -0.266063 0.282904
v -0.861803 -0.276396 0.425324
v -0.776629 -0.280118 0.564253
v -0.670819 -0.276397 0.688191
v -0.553819 -0.266065 0.788983
v -0.903739 -0.380897 0.195378
v -0.854991 -0.399094 0.331231
v -0.782445 -0.409229 0.469374
v -0.688189 -0.409230 0.599106
v -0.579224 -0.399096 0.710789
v -0.465084 -0.380900 0.799132
v 0.298886 0.253934 0.919883
v 0.230948 0.133032 0.963828
v 0.379681 0.133033 0.915502
v 0.152509 -0.000000 0.988302
v 0.309017 0.000000 0.951056
v 0.457527 0.000000 0.889196
v 0.068206 -0.136410 0.988302
v 0.226619 -0.140060 0.963861
v 0.383207 -0.140060 0.912982
v 0.525732 -0.136411 0.839641
v -0.015699 -0.266065 0.963827
v 0.138199 -0.276397 0.951055
v 0.296648 -0.280119 0.912980
v 0.447216 -0.276398 0.850648
v 0.579229 -0.266065 0.770521
v -0.093451 -0.380900 0.919882
v 0.050817 -0.399097 0.915500
v 0.204615 -0.409230 0.889192
v 0.357124 -0.409230 0.839639
v 0.497012 -0.399097 0.770520
v 0.616302 -0.380900 0.689266
v 0.967222 0.253931 0.000000
v 0.988023 0.133031 0.078192
v 0.988023 0.133031 -0.078192
v 0.987059 -0.000000 0.160355
v 1.000000 0.000000 0.000000
v 0.987059 0.000000 -0.160355
v 0.961008 -0.136410 0.240533
v 0.986715 -0.140059 0.082322
v 0.986715 -0.140059 -0.082322
v 0.961008 -0.136410 -0.240533
v 0.911804 -0.266064 0.312769
v 0.947213 -0.276396 0.162458
v 0.959966 -0.280117 0.000000
v 0.947213 -0.276396 -0.162458
v 0.911804 -0.266064 -0.312769
v 0.845982 -0.380899 0.373136
v 0.886396 -0.399095 0.234576
v 0.908902 -0.409229 0.080178
v 0.908902 -0.409229 -0.080178
v 0.886396 -0.399095 -0.234576
v 0.845982 -0.380899 -0.373136
v 0.577066 -0.586334 -0.568513
v 0.497009 -0.696561 -0.517479
v 0.455902 -0.614344 -0.643999
v 0.399272 -0.798552 -0.450441
v 0.361804 -0.723612 -0.587779
v 0.314971 -0.629943 -0.709905
v 0.288916 -0.882855 -0.370263
v 0.253366 -0.819913 -0.513370
v 0.210087 -0.733354 -0.646572
v 0.162463 -0.629943 -0.759459
v 0.174138 -0.943209 -0.282902
v 0.138197 -0.894429 -0.425321
v 0.096779 -0.819912 -0.564250
v 0.052789 -0.723611 -0.688186
v 0.009708 -0.614344 -0.788979
v 0.063482 -0.978671 -0.195377
v 0.025407 -0.943208 -0.331229
v -0.016099 -0.882854 -0.469371
v -0.058250 -0.798550 -0.599103
v -0.097915 -0.696560 -0.710786
v -0.132684 -0.586334 -0.799129
v -0.362367 -0.586334 -0.724501
v -0.338569 -0.696561 -0.632593
v -0.471601 -0.614344 -0.632593
v -0.305014 -0.798552 -0.518923
v -0.447211 -0.723612 -0.525727
v -0.577832 -0.629943 -0.518924
v -0.262862 -0.882855 -0.389192
v -0.409952 -0.819913 -0.399603
v -0.550010 -0.733353 -0.399603
v -0.672088 -0.629942 -0.389192
v -0.215245 -0.943209 -0.253036
v -0.361801 -0.894429 -0.262863
v -0.506730 -0.819912 -0.266402
v -0.638195 -0.723609 -0.262863
v -0.747367 -0.614341 -0.253036
v -0.166198 -0.978671 -0.120749
v -0.307168 -0.943208 -0.126518
v -0.451376 -0.882853 -0.129730
v -0.587784 -0.798549 -0.129730
v -0.706258 -0.696557 -0.126518
v -0.801022 -0.586330 -0.120749
v -0.801022 -0.586330 0.120750
v -0.706258 -0.696558 0.126518
v -0.747367 -0.614341 0.253037
v -0.587784 -0.798549 0.129731
v -0.638195 -0.723609 0.262864
v -0.672088 -0.629941 0.389193
v -0.451375 -0.882853 0.129731
v -0.506730 -0.819911 0.266403
v -0.550009 -0.733352 0.399605
v -0.577832 -0.629942 0.518925
v -0.307168 -0.943208 0.126519
v -0.361801 -0.894428 0.262864
v -0.409952 -0.819912 0.399605
v -0.447211 -0.723610 0.525729
v -0.471601 -0.614343 0.632594
v -0.166198 -0.978671 0.120750
v -0.215246 -0.943208 0.253038
v -0.262863 -0.882854 0.389194
v -0.305015 -0.798550 0.518925
v -0.338569 -0.696560 0.632594
v -0.362367 -0.586333 0.724502
v 0.719015 -0.586334 -0.373135
v 0.753363 -0.614343 -0.234576
v 0.645740 -0.696560 -0.312768
v 0.772493 -0.629942 -0.080177
v 0.670817 -0.723611 -0.162457
v 0.551780 -0.798551 -0.240532
v 0.772493 -0.629942 0.080178
v 0.679849 -0.733353 0.000000
v 0.566540 -0.819912 -0.082322
v 0.441423 -0.882854 -0.160354
v 0.753364 -0.614343 0.234576
v 0.670818 -0.723610 0.162458
v 0.566541 -0.819911 0.082323
v 0.447211 -0.894428 0.000001
v 0.322869 -0.943208 -0.078191
v 0.719016 -0.586333 0.373136
v 0.645741 -0.696559 0.312769
v 0.551781 -0.798550 0.240533
v 0.441424 -0.882854 0.160356
v 0.322870 -0.943208 0.078193
v 0.205432 -0.978671 0.000001
v -0.132684 -0.586334 0.799129
v -0.097915 -0.696561 0.710785
v 0.009709 -0.614344 0.788978
v -0.058249 -0.798552 0.599101
v 0.052790 -0.723612 0.688185
v 0.162463 -0.629944 0.759458
v -0.016097 -0.882855 0.469370
v 0.096780 -0.819913 0.564249
v 0.210089 -0.733354 0.646572
v 0.314971 -0.629943 0.709905
v 0.025409 -0.943209 0.331228
v 0.138199 -0.894429 0.425321
v 0.253368 -0.819912 0.513370
v 0.361805 -0.723611 0.587779
v 0.455903 -0.614344 0.643999
v 0.063484 -0.978671 0.195377
v 0.174140 -0.943208 0.282902
v 0.288918 -0.882854 0.370264
v 0.399274 -0.798550 0.450441
v 0.497011 -0.696560 0.517480
v 0.577067 -0.586333 0.568513
vn -0.0000 -1.0000 -0.0000
vn 0.7236 -0.4472 0.5257
vn -0.2764 -0.4472 0.8506
vn -0.8944 -0.4472 -0.0000
vn -0.2764 -0.4472 -0.8506
vn 0.7236 -0.4472 -0.5257
vn 0.2764 0.4472 0.8506
vn -0.7236 0.4472 0.5257
vn -0.7236 0.4472 -0.5257
vn 0.2764 0.4472 -0.8506
vn 0.8944 0.4472 -0.0000
vn -0.0000 1.0000 -0.0000
vn -0.2575 -0.5530 0.7924
vn -0.2324 -0.6591 0.7152
vn -0.2004 -0.7612 0.6168
vn -0.1625 -0.8507 0.5000
vn -0.1207 -0.9205 0.3716
vn -0.0782 -0.9674 0.2408
vn -0.0377 -0.9925 0.1161
vn 0.0987 -0.9925 0.0717
vn 0.2048 -0.9674 0.1488
vn 0.3161 -0.9205 0.2297
vn 0.4253 -0.8507 0.3090
vn 0.5247 -0.7612 0.3812
vn 0.6084 -0.6591 0.4420
vn 0.6740 -0.5530 0.4897
vn 0.6363 -0.4776 0.6058
vn 0.5302 -0.5026 0.6828
vn 0.4040 -0.5197 0.7528
vn 0.2629 -0.5257 0.8090
vn 0.1157 -0.5197 0.8465
vn -0.0275 -0.5026 0.8641
vn -0.1587 -0.4776 0.8641
vn 0.7728 -0.4776 -0.4180
vn 0.8133 -0.5026 -0.2932
vn 0.8408 -0.5197 -0.1516
vn 0.8506 -0.5257 -0.0000
vn 0.8408 -0.5197 0.1516
vn 0.8133 -0.5026 0.2932
vn 0.7728 -0.4776 0.4180
vn 0.0987 -0.9925 -0.0717
vn 0.2048 -0.9674 -0.1488
vn 0.3161 -0.9205 -0.2297
vn 0.4253 -0.8507 -0.3090
vn 0.5247 -0.7612 -0.3812
vn 0.6084 -0.6591 -0.4420
vn 0.6740 -0.5530 -0.4897
vn -0.8332 -0.5530 -0.0000
vn -0.7520 -0.6591 -0.0000
vn -0.6486 -0.7612 -0.0000
vn -0.5257 -0.8507 -0.0000
vn -0.3907 -0.9205 -0.0000
vn -0.2532 -0.9674 -0.0000
vn -0.1220 -0.9925 -0.0000
vn -0.3795 -0.4776 0.7924
vn -0.4856 -0.5026 0.7152
vn -0.5912 -0.5197 0.6168
vn -0.6882 -0.5257 0.5000
vn -0.7693 -0.5197 0.3716
vn -0.8303 -0.5026 0.2408
vn -0.8709 -0.4776 0.1161
vn -0.2575 -0.5530 -0.7924
vn -0.2324 -0.6591 -0.7152
vn -0.2004 -0.7612 -0.6168
vn -0.1625 -0.8507 -0.5000
vn -0.1207 -0.9205 -0.3716
vn -0.0782 -0.9674 -0.2408
vn -0.0377 -0.9925 -0.1161
vn -0.8709 -0.4776 -0.1161
vn -0.8303 -0.5026 -0.2408
vn -0.7693 -0.5197 -0.3716
vn -0.6882 -0.5257 -0.5000
vn -0.5912 -0.5197 -0.6168
vn -0.4856 -0.5026 -0.7152
vn -0.3795 -0.4776 -0.7924
vn -0.1587 -0.4776 -0.8641
vn -0.0275 -0.5026 -0.8641
vn 0.1157 -0.5197 -0.8465
vn 0.2629 -0.5257 -0.8090
vn 0.4040 -0.5197 -0.7528
vn 0.5302 -0.5026 -0.6828
vn 0.6363 -0.4776 -0.6058
vn 0.9319 0.3556 0.0717
vn 0.9569 0.2494 0.1488
vn 0.9647 0.1289 0.2297
vn 0.9511 -0.0000 0.3090
vn 0.9155 -0.1289 0.3812
vn 0.8616 -0.2494 0.4420
vn 0.7961 -0.3556 0.4897
vn 0.7961 -0.3556 -0.4897
vn 0.8616 -0.2494 -0.4420
vn 0.9155 -0.1289 -0.3812
vn 0.9511 -0.0000 -0.3090
vn 0.9647 0.1289 -0.2297
vn 0.9569 0.2494 -0.1488
vn 0.9319 0.3556 -0.0717
vn 0.2198 0.3556 0.9084
vn 0.1541 0.2494 0.9560
vn 0.0797 0.1289 0.9884
vn -0.0000 -0.0000 1.0000
vn -0.0797 -0.1289 0.9884
vn -0.1541 -0.2494 0.9560
vn -0.2198 -0.3556 0.9084
vn 0.7118 -0.3556 0.6058
vn 0.6867 -0.2494 0.6829
vn 0.6455 -0.1289 0.7528
vn 0.5878 -0.0000 0.8090
vn 0.5165 0.1289 0.8465
vn 0.4372 0.2494 0.8641
vn 0.3562 0.3556 0.8641
vn -0.7961 0.3556 0.4897
vn -0.8616 0.2494 0.4420
vn -0.9155 0.1289 0.3812
vn -0.9511 -0.0000 0.3090
vn -0.9647 -0.1289 0.2297
vn -0.9569 -0.2494 0.1488
vn -0.9319 -0.3556 0.0717
vn -0.3562 -0.3556 0.8641
vn -0.4372 -0.2494 0.8641
vn -0.5165 -0.1289 0.8465
vn -0.5878 -0.0000 0.8090
vn -0.6455 0.1289 0.7528
vn -0.6867 0.2494 0.6829
vn -0.7118 0.3556 0.6058
vn -0.7118 0.3556 -0.6058
vn -0.6867 0.2494 -0.6829
vn -0.6455 0.1289 -0.7528
vn -0.5878 -0.0000 -0.8090
vn -0.5165 -0.1289 -0.8465
vn -0.4372 -0.2494 -0.8641
vn -0.3562 -0.3556 -0.8641
vn -0.9319 -0.3556 -0.0717
vn -0.9569 -0.2494 -0.1488
vn -0.9647 -0.1289 -0.2297
vn -0.9511 -0.0000 -0.3090
vn -0.9155 0.1289 -0.3812
vn -0.8616 0.2494 -0.4420
vn -0.7961 0.3556 -0.4897
vn 0.3562 0.3556 -0.8641
vn 0.4372 0.2494 -0.8641
vn 0.5165 0.1289 -0.8465
vn 0.5878 -0.0000 -0.8090
vn 0.6455 -0.1289 -0.7528
vn 0.6867 -0.2494 -0.6829
vn 0.7118 -0.3556 -0.6058
vn -0.2198 -0.3556 -0.9084
vn -0.1541 -0.2494 -0.9560
vn -0.0797 -0.1289 -0.9884
vn -0.0000 -0.0000 -1.0000
vn 0.0797 0.1289 -0.9884
vn 0.1541 0.2494 -0.9560
vn 0.2198 0.3556 -0.9084
vn 0.8709 0.4776 0.1161
vn 0.8303 0.5026 0.2408
vn 0.7693 0.5197 0.3716
vn 0.6882 0.5257 0.5000
vn 0.5912 0.5197 0.6168
vn 0.4856 0.5026 0.7152
vn 0.3795 0.4776 0.7924
vn 0.1587 0.4776 0.8641
vn 0.0275 0.5026 0.8641
vn -0.1157 0.5197 0.8465
vn -0.2629 0.5257 0.8090
vn -0.4040 0.5197 0.7528
vn -0.5302 0.5026 0.6828
vn -0.6363 0.4776 0.6058
vn -0.7728 0.4776 0.4180
vn -0.8133 0.5026 0.2932
vn -0.8408 0.5197 0.1515
vn -0.8506 0.5257 -0.0000
vn -0.8408 0.5197 -0.1516
vn -0.8133 0.5026 -0.2932
vn -0.7728 0.4776 -0.4180
vn -0.6363 0.4776 -0.6058
vn -0.5302 0.5026 -0.6828
vn -0.4040 0.5197 -0.7528
vn -0.2629 0.5257 -0.8090
vn -0.1157 0.5197 -0.8465
vn 0.0275 0.5026 -0.8641
vn 0.1587 0.4776 -0.8641
vn 0.3795 0.4776 -0.7924
vn 0.4856 0.5026 -0.7152
vn 0.5912 0.5197 -0.6168
vn 0.6882 0.5257 -0.5000
vn 0.7693 0.5197 -0.3716
vn 0.8303 0.5026 -0.2408
vn 0.8709 0.4776 -0.1161
vn 0.0377 0.9925 0.1161
vn 0.0782 0.9674 0.2408
vn 0.1207 0.9205 0.3716
vn 0.1625 0.8507 0.5000
vn 0.2004 0.7612 0.6168
vn 0.2324 0.6591 0.7152
vn 0.2575 0.5530 0.7924
vn 0.8332 0.5530 -0.0000
vn 0.7520 0.6591 -0.0000
vn 0.6486 0.7612 -0.0000
vn 0.5257 0.8507 -0.0000
vn 0.3907 0.9205 -0.0000
vn 0.2532 0.9674 -0.0000
vn 0.1220 0.9925 -0.0000
vn -0.0987 0.9925 0.0717
vn -0.2048 0.9674 0.1488
vn -0.3161 0.9205 0.2297
vn -0.4253 0.8507 0.3090
vn -0.5247 0.7612 0.3812
vn -0.6084 0.6591 0.4420
vn -0.6740 0.5530 0.4897
vn -0.0987 0.9925 -0.0717
vn -0.2048 0.9674 -0.1488
vn -0.3161 0.9205 -0.2297
vn -0.4253 0.8507 -0.3090
vn -0.5247 0.7612 -0.3812
vn -0.6084 0.6591 -0.4420
vn -0.6740 0.5530 -0.4897
vn 0.0377 0.9925 -0.1161
vn 0.0782 0.9674 -0.2408
vn 0.1207 0.9205 -0.3716
vn 0.1625 0.8507 -0.5000
vn 0.2004 0.7612 -0.6168
vn 0.2324 0.6591 -0.7152
vn 0.2575 0.5530 -0.7924
vn 0.1698 0.9777 -0.1233
vn 0.3095 0.9421 -0.1293
vn 0.2186 0.9421 -0.2544
vn 0.4520 0.8821 -0.1326
vn 0.3635 0.8934 -0.2641
vn 0.2658 0.8821 -0.3889
vn 0.5868 0.7988 -0.1326
vn 0.5066 0.8196 -0.2676
vn 0.4110 0.8196 -0.3991
vn 0.3074 0.7988 -0.5171
vn 0.7042 0.6981 -0.1293
vn 0.6365 0.7247 -0.2641
vn 0.5493 0.7342 -0.3991
vn 0.4479 0.7247 -0.5237
vn 0.3406 0.6981 -0.6298
vn 0.7986 0.5891 -0.1233
vn 0.7449 0.6168 -0.2544
vn 0.6701 0.6322 -0.3889
vn 0.5770 0.6322 -0.5171
vn 0.4721 0.6168 -0.6298
vn 0.3641 0.5891 -0.7214
vn -0.0648 0.9777 -0.1996
vn -0.0273 0.9421 -0.3343
vn -0.1744 0.9421 -0.2865
vn 0.0136 0.8821 -0.4709
vn -0.1389 0.8934 -0.4274
vn -0.2878 0.8821 -0.3730
vn 0.0552 0.7988 -0.5991
vn -0.0980 0.8196 -0.5645
vn -0.2525 0.8196 -0.5142
vn -0.3968 0.7988 -0.4522
vn 0.0947 0.6981 -0.7097
vn -0.0545 0.7247 -0.6869
vn -0.2098 0.7342 -0.6457
vn -0.3597 0.7247 -0.5878
vn -0.4937 0.6981 -0.5185
vn 0.1295 0.5891 -0.7976
vn -0.0118 0.6168 -0.7870
vn -0.1628 0.6322 -0.7575
vn -0.3135 0.6322 -0.7085
vn -0.4531 0.6168 -0.6436
vn -0.5736 0.5891 -0.5692
vn -0.2098 0.9777 -0.0000
vn -0.3264 0.9421 -0.0773
vn -0.3264 0.9421 0.0773
vn -0.4436 0.8821 -0.1584
vn -0.4493 0.8934 -0.0000
vn -0.4436 0.8821 0.1584
vn -0.5527 0.7988 -0.2376
vn -0.5671 0.8196 -0.0812
vn -0.5671 0.8196 0.0812
vn -0.5527 0.7988 0.2377
vn -0.6457 0.6981 -0.3093
vn -0.6702 0.7247 -0.1604
vn -0.6789 0.7342 -0.0000
vn -0.6702 0.7247 0.1604
vn -0.6457 0.6981 0.3093
vn -0.7186 0.5891 -0.3696
vn -0.7521 0.6168 -0.2320
vn -0.7707 0.6322 -0.0792
vn -0.7707 0.6322 0.0792
vn -0.7521 0.6168 0.2320
vn -0.7186 0.5891 0.3696
vn -0.0648 0.9777 0.1996
vn -0.1744 0.9421 0.2865
vn -0.0273 0.9421 0.3343
vn -0.2878 0.8821 0.3730
vn -0.1389 0.8934 0.4274
vn 0.0136 0.8821 0.4709
vn -0.3968 0.7988 0.4522
vn -0.2525 0.8196 0.5142
vn -0.0980 0.8196 0.5645
vn 0.0552 0.7988 0.5991
vn -0.4937 0.6981 0.5185
vn -0.3597 0.7247 0.5878
vn -0.2098 0.7342 0.6457
vn -0.0545 0.7247 0.6869
vn 0.0947 0.6981 0.7097
vn -0.5736 0.5891 0.5692
vn -0.4531 0.6168 0.6436
vn -0.3135 0.6322 0.7085
vn -0.1628 0.6322 0.7575
vn -0.0118 0.6168 0.7870
vn 0.1295 0.5891 0.7976
vn 0.1698 0.9777 0.1233
vn 0.2186 0.9421 0.2544
vn 0.3095 0.9421 0.1293
vn 0.2658 0.8821 0.3889
vn 0.3635 0.8934 0.2641
vn 0.4520 0.8821 0.1326
vn 0.3074 0.7988 0.5171
vn 0.4110 0.8196 0.3991
vn 0.5066 0.8196 0.2676
vn 0.5868 0.7988 0.1326
vn 0.3406 0.6981 0.6298
vn 0.4479 0.7247 0.5237
vn 0.5493 0.7342 0.3991
vn 0.6365 0.7247 0.2641
vn 0.7042 0.6981 0.1293
vn 0.3641 0.5891 0.7214
vn 0.4721 0.6168 0.6298
vn 0.5770 0.6322 0.5171
vn 0.6701 0.6322 0.3889
vn 0.7449 0.6168 0.2544
vn 0.7986 0.5891 0.1233
vn 0.9035 0.3793 -0.1996
vn 0.9206 0.2653 -0.2865
vn 0.8548 0.3969 -0.3343
vn 0.9177 0.1371 -0.3730
vn 0.8611 0.2753 -0.4274
vn 0.7829 0.4066 -0.4709
vn 0.8919 0.0023 -0.4522
vn 0.8460 0.1407 -0.5142
vn 0.7769 0.2789 -0.5645
vn 0.6898 0.4066 -0.5991
vn 0.8452 -0.1294 -0.5185
vn 0.8090 0.0024 -0.5878
vn 0.7505 0.1407 -0.6457
vn 0.6725 0.2753 -0.6869
vn 0.5821 0.3969 -0.7097
vn 0.7834 -0.2496 -0.5692
vn 0.7543 -0.1294 -0.6436
vn 0.7057 0.0023 -0.7085
vn 0.6383 0.1371 -0.7575
vn 0.5570 0.2653 -0.7870
vn 0.4690 0.3793 -0.7976
vn 0.0894 0.3793 -0.9210
vn 0.0120 0.2653 -0.9641
vn -0.0538 0.3969 -0.9163
vn -0.0711 0.1371 -0.9880
vn -0.1403 0.2753 -0.9511
vn -0.2059 0.4066 -0.8901
vn -0.1544 0.0023 -0.9880
vn -0.2276 0.1407 -0.9635
vn -0.2968 0.2789 -0.9133
vn -0.3566 0.4066 -0.8411
vn -0.2319 -0.1294 -0.9641
vn -0.3090 0.0024 -0.9511
vn -0.3822 0.1407 -0.9133
vn -0.4455 0.2753 -0.8519
vn -0.4951 0.3969 -0.7729
vn -0.2992 -0.2496 -0.9210
vn -0.3790 -0.1294 -0.9163
vn -0.4558 0.0023 -0.8901
vn -0.5232 0.1371 -0.8411
vn -0.5764 0.2653 -0.7729
vn -0.6137 0.3793 -0.6925
vn -0.8483 0.3793 -0.3696
vn -0.9132 0.2653 -0.3093
vn -0.8881 0.3969 -0.2320
vn -0.9616 0.1371 -0.2377
vn -0.9479 0.2753 -0.1604
vn -0.9101 0.4066 -0.0792
vn -0.9874 0.0023 -0.1584
vn -0.9867 0.1407 -0.0812
vn -0.9603 0.2789 -0.0000
vn -0.9101 0.4066 0.0792
vn -0.9886 -0.1294 -0.0773
vn -1.0000 0.0024 -0.0000
vn -0.9867 0.1407 0.0812
vn -0.9479 0.2753 0.1604
vn -0.8881 0.3969 0.2320
vn -0.9684 -0.2496 -0.0000
vn -0.9886 -0.1294 0.0773
vn -0.9874 0.0023 0.1584
vn -0.9616 0.1371 0.2377
vn -0.9132 0.2653 0.3093
vn -0.8483 0.3793 0.3696
vn -0.6137 0.3793 0.6925
vn -0.5764 0.2653 0.7729
vn -0.4951 0.3969 0.7729
vn -0.5232 0.1371 0.8411
vn -0.4455 0.2753 0.8519
vn -0.3566 0.4066 0.8411
vn -0.4558 0.0023 0.8901
vn -0.3822 0.1407 0.9133
vn -0.2968 0.2789 0.9133
vn -0.2059 0.4066 0.8901
vn -0.3790 -0.1294 0.9163
vn -0.3090 0.0024 0.9511
vn -0.2276 0.1407 0.9635
vn -0.1403 0.2753 0.9511
vn -0.0538 0.3969 0.9163
vn -0.2992 -0.2496 0.9210
vn -0.2319 -0.1294 0.9641
vn -0.1544 0.0023 0.9880
vn -0.0711 0.1371 0.9880
vn 0.0120 0.2653 0.9641
vn 0.0894 0.3793 0.9210
vn 0.4690 0.3793 0.7976
vn 0.5570 0.2653 0.7870
vn 0.5821 0.3969 0.7097
vn 0.6383 0.1371 0.7575
vn 0.6725 0.2753 0.6869
vn 0.6898 0.4066 0.5991
vn 0.7057 0.0023 0.7085
vn 0.7505 0.1407 0.6457
vn 0.7769 0.2789 0.5645
vn 0.7829 0.4066 0.4709
vn 0.7543 -0.1294 0.6436
vn 0.8090 0.0024 0.5878
vn 0.8460 0.1407 0.5142
vn 0.8611 0.2753 0.4274
vn 0.8548 0.3969 0.3343
vn 0.7834 -0.2496 0.5692
vn 0.8452 -0.1294 0.5185
vn 0.8919 0.0023 0.4522
vn 0.9177 0.1371 0.3730
vn 0.9206 0.2653 0.2865
vn 0.9035 0.3793 0.1996
vn 0.2992 0.2496 -0.9210
vn 0.3790 0.1294 -0.9163
vn 0.2319 0.1294 -0.9641
vn 0.4558 -0.0023 -0.8901
vn 0.3090 -0.0024 -0.9511
vn 0.1544 -0.0023 -0.9880
vn 0.5232 -0.1371 -0.8411
vn 0.3822 -0.1407 -0.9133
vn 0.2276 -0.1407 -0.9635
vn 0.0711 -0.1371 -0.9880
vn 0.5764 -0.2653 -0.7729
vn 0.4455 -0.2753 -0.8519
vn 0.2968 -0.2789 -0.9133
vn 0.1403 -0.2753 -0.9511
vn -0.0120 -0.2653 -0.9641
vn 0.6137 -0.3793 -0.6925
vn 0.4951 -0.3969 -0.7729
vn 0.3566 -0.4066 -0.8411
vn 0.2059 -0.4066 -0.8901
vn 0.0538 -0.3969 -0.9163
vn -0.0894 -0.3793 -0.9210
vn -0.7834 0.2496 -0.5692
vn -0.7543 0.1294 -0.6436
vn -0.8452 0.1294 -0.5185
vn -0.7057 -0.0023 -0.7085
vn -0.8090 -0.0024 -0.5878
vn -0.8919 -0.0023 -0.4522
vn -0.6383 -0.1371 -0.7575
vn -0.7505 -0.1407 -0.6457
vn -0.8460 -0.1407 -0.5142
vn -0.9177 -0.1371 -0.3730
vn -0.5570 -0.2653 -0.7870
vn -0.6725 -0.2753 -0.6869
vn -0.7769 -0.2789 -0.5645
vn -0.8611 -0.2753 -0.4274
vn -0.9206 -0.2653 -0.2865
vn -0.4690 -0.3793 -0.7976
vn -0.5821 -0.3969 -0.7097
vn -0.6898 -0.4066 -0.5991
vn -0.7829 -0.4066 -0.4709
vn -0.8548 -0.3969 -0.3343
vn -0.9035 -0.3793 -0.1996
vn -0.7834 0.2496 0.5692
vn -0.8452 0.1294 0.5185
vn -0.7543 0.1294 0.6436
vn -0.8919 -0.0023 0.4522
vn -0.8090 -0.0024 0.5878
vn -0.7057 -0.0023 0.7085
vn -0.9177 -0.1371 0.3730
vn -0.8460 -0.1407 0.5142
vn -0.7505 -0.1407 0.6457
vn -0.6383 -0.1371 0.7575
vn -0.9206 -0.2653 0.2865
vn -0.8611 -0.2753 0.4274
vn -0.7769 -0.2789 0.5645
vn -0.6725 -0.2753 0.6869
vn -0.5570 -0.2653 0.7870
vn -0.9035 -0.3793 0.1996
vn -0.8548 -0.3969 0.3343
vn -0.7829 -0.4066 0.4709
vn -0.6898 -0.4066 0.5991
vn -0.5821 -0.3969 0.7097
vn -0.4690 -0.3793 0.7976
vn 0.2992 0.2496 0.9210
vn 0.2319 0.1294 0.9641
vn 0.3790 0.1294 0.9163
vn 0.1544 -0.0023 0.9880
vn 0.3090 -0.0024 0.9511
vn 0.4558 -0.0023 0.8901
vn 0.0711 -0.1371 0.9880
vn 0.2276 -0.1407 0.9635
vn 0.3822 -0.1407 0.9133
vn 0.5232 -0.1371 0.8411
vn -0.0120 -0.2653 0.9641
vn 0.1403 -0.2753 0.9511
vn 0.2968 -0.2789 0.9133
vn 0.4455 -0.2753 0.8519
vn 0.5764 -0.2653 0.7729
vn -0.0894 -0.3793 0.9210
vn 0.0538 -0.3969 0.9163
vn 0.2059 -0.4066 0.8901
vn 0.3566 -0.4066 0.8411
vn 0.4951 -0.3969 0.7729
vn 0.6137 -0.3793 0.6925
vn 0.9684 0.2496 -0.0000
vn 0.9886 0.1294 0.0773
vn 0.9886 0.1294 -0.0773
vn 0.9874 -0.0023 0.1584
vn 1.0000 -0.0024 -0.0000
vn 0.9874 -0.0023 -0.1584
vn 0.9616 -0.1371 0.2377
vn 0.9867 -0.1407 0.0812
vn 0.9867 -0.1407 -0.0812
vn 0.9616 -0.1371 -0.2377
vn 0.9132 -0.2653 0.3093
vn 0.9479 -0.2753 0.1604
vn 0.9603 -0.2789 -0.0000
vn 0.9479 -0.2753 -0.1604
vn 0.9132 -0.2653 -0.3093
vn 0.8483 -0.3793 0.3696
vn 0.8881 -0.3969 0.2320
vn 0.9101 -0.4066 0.0792
vn 0.9101 -0.4066 -0.0792
vn 0.8881 -0.3969 -0.2320
vn 0.8483 -0.3793 -0.3696
vn 0.5736 -0.5891 -0.5692
vn 0.4937 -0.6981 -0.5185
vn 0.4531 -0.6168 -0.6436
vn 0.3968 -0.7988 -0.4522
vn 0.3597 -0.7247 -0.5878
vn 0.3135 -0.6322 -0.7085
vn 0.2878 -0.8821 -0.3730
vn 0.2525 -0.8196 -0.5142
vn 0.2098 -0.7342 -0.6457
vn 0.1628 -0.6322 -0.7575
vn 0.1744 -0.9421 -0.2865
vn 0.1389 -0.8934 -0.4274
vn 0.0980 -0.8196 -0.5645
vn 0.0545 -0.7247 -0.6869
vn 0.0118 -0.6168 -0.7870
vn 0.0648 -0.9777 -0.1996
vn 0.0273 -0.9421 -0.3343
vn -0.0136 -0.8821 -0.4709
vn -0.0552 -0.7988 -0.5991
vn -0.0947 -0.6981 -0.7097
vn -0.1295 -0.5891 -0.7976
vn -0.3641 -0.5891 -0.7214
vn -0.3406 -0.6981 -0.6298
vn -0.4721 -0.6168 -0.6298
vn -0.3074 -0.7988 -0.5171
vn -0.4479 -0.7247 -0.5237
vn -0.5770 -0.6322 -0.5171
vn -0.2658 -0.8821 -0.3889
vn -0.4110 -0.8196 -0.3991
vn -0.5493 -0.7342 -0.3991
vn -0.6701 -0.6322 -0.3889
vn -0.2186 -0.9421 -0.2544
vn -0.3635 -0.8934 -0.2641
vn -0.5066 -0.8196 -0.2676
vn -0.6365 -0.7247 -0.2641
vn -0.7449 -0.6168 -0.2544
vn -0.1698 -0.9777 -0.1233
vn -0.3095 -0.9421 -0.1293
vn -0.4520 -0.8821 -0.1326
vn -0.5868 -0.7988 -0.1326
vn -0.7042 -0.6981 -0.1293
vn -0.7986 -0.5891 -0.1233
vn -0.7986 -0.5891 0.1233
vn -0.7042 -0.6981 0.1293
vn -0.7449 -0.6168 0.2544
vn -0.5868 -0.7988 0.1326
vn -0.6365 -0.7247 0.2641
vn -0.6701 -0.6322 0.3889
vn -0.4520 -0.8821 0.1326
vn -0.5066 -0.8196 0.2676
vn -0.5493 -0.7342 0.3991
vn -0.5770 -0.6322 0.5171
vn -0.3095 -0.9421 0.1293
vn -0.3635 -0.8934 0.2641
vn -0.4110 -0.8196 0.3991
vn -0.4479 -0.7247 0.5237
vn -0.4721 -0.6168 0.6298
vn -0.1698 -0.9777 0.1233
vn -0.2186 -0.9421 0.2544
vn -0.2658 -0.8821 0.3889
vn -0.3074 -0.7988 0.5171
vn -0.3406 -0.6981 0.6298
vn -0.3641 -0.5891 0.7214
vn 0.7186 -0.5891 -0.3696
vn 0.7521 -0.6168 -0.2320
vn 0.6457 -0.6981 -0.3093
vn 0.7707 -0.6322 -0.0792
vn 0.6702 -0.7247 -0.1604
vn 0.5527 -0.7988 -0.2376
vn 0.7707 -0.6322 0.0792
vn 0.6789 -0.7342 -0.0000
vn 0.5671 -0.8196 -0.0812
vn 0.4436 -0.8821 -0.1584
vn 0.7521 -0.6168 0.2320
vn 0.6702 -0.7247 0.1604
vn 0.5671 -0.8196 0.0812
vn 0.4493 -0.8934 -0.0000
vn 0.3264 -0.9421 -0.0773
vn 0.7186 -0.5891 0.3696
vn 0.6457 -0.6981 0.3093
vn 0.5527 -0.7988 0.2377
vn 0.4436 -0.8821 0.1584
vn 0.3264 -0.9421 0.0773
vn 0.2098 -0.9777 -0.0000
vn -0.1295 -0.5891 0.7976
vn -0.0947 -0.6981 0.7097
vn 0.0118 -0.6168 0.7870
vn -0.0552 -0.7988 0.5991
vn 0.0545 -0.7247 0.6869
vn 0.1628 -0.6322 0.7575
vn -0.0136 -0.8821 0.4709
vn 0.0980 -0.8196 0.5645
vn 0.2098 -0.7342 0.6457
vn 0.3135 -0.6322 0.7085
vn 0.0273 -0.9421 0.3343
vn 0.1389 -0.8934 0.4274
vn 0.2525 -0.8196 0.5142
vn 0.3597 -0.7247 0.5878
vn 0.4531 -0.6168 0.6436
vn 0.0648 -0.9777 0.1996
vn 0.1744 -0.9421 0.2865
vn 0.2878 -0.8821 0.3730
vn 0.3968 -0.7988 0.4522
vn 0.4937 -0.6981 0.5185
vn 0.5736 -0.5891 0.5692
s 1
f 1//1 20//20 19//19
f 2//2 26//26 40//40
f 1//1 19//19 54//54
f 1//1 54//54 68//68
f 1//1 68//68 41//41
f 2//2 40//40 89//89
f 3//3 33//33 103//103
f 4//4 61//61 117//117
f 5//5 75//75 131//131
f 6//6 82//82 145//145
f 2//2 89//89 104//104
f 3//3 103//103 118//118
f 4//4 117//117 132//132
f 5//5 131//131 146//146
f 6//6 145//145 90//90
f 7//7 159//159 194//194
f 8//8 166//166 208//208
f 9//9 173//173 215//215
f 10//10 180//180 222//222
f 11//11 187//187 195//195
f 201//201 216//216 12//12
f 200//200 223//223 201//201
f 199//199 224//224 200//200
f 198//198 226//226 199//199
f 197//197 229//229 198//198
f 196//196 233//233 197//197
f 195//195 238//238 196//196
f 201//201 223//223 216//216
f 223//223 217//217 216//216
f 200//200 224//224 223//223
f 224//224 225//225 223//223
f 223//223 225//225 217//217
f 225//225 218//218 217//217
f 199//199 226//226 224//224
f 226//226 227//227 224//224
f 224//224 227//227 225//225
f 227//227 228//228 225//225
f 225//225 228//228 218//218
f 228//228 219//219 218//218
f 198//198 229//229 226//226
f 229//229 230//230 226//226
f 226//226 230//230 227//227
f 230//230 231//231 227//227
f 227//227 231//231 228//228
f 231//231 232//232 228//228
f 228//228 232//232 219//219
f 232//232 220//220 219//219
f 197//197 233//233 229//229
f 233//233 234//234 229//229
f 229//229 234//234 230//230
f 234//234 235//235 230//230
f 230//230 235//235 231//231
f 235//235 236//236 231//231
f 231//231 236//236 232//232
f 236//236 237//237 232//232
f 232//232 237//237 220//220
f 237//237 221//221 220//220
f 196//196 238//238 233//233
f 238//238 239//239 233//233
f 233//233 239//239 234//234
f 239//239 240//240 234//234
f 234//234 240//240 235//235
f 240//240 241//241 235//235
f 235//235 241//241 236//236
f 241//241 242//242 236//236
f 236//236 242//242 237//237
f 242//242 243//243 237//237
f 237//237 243//243 221//221
f 243//243 222//222 221//221
f 195//195 187//187 238//238
f 187//187 186//186 238//238
f 238//238 186//186 239//239
f 186//186 185//185 239//239
f 239//239 185//185 240//240
f 185//185 184//184 240//240
f 240//240 184//184 241//241
f 184//184 183//183 241//241
f 241//241 183//183 242//242
f 183//183 182//182 242//242
f 242//242 182//182 243//243
f 182//182 181//181 243//243
f 243//243 181//181 222//222
f 181//181 10//10 222//222
f 216//216 209//209 12//12
f 217//217 244//244 216//216
f 218//218 245//245 217//217
f 219//219 247//247 218//218
f 220//220 250//250 219//219
f 221//221 254//254 220//220
f 222//222 259//259 221//221
f 216//216 244//244 209//209
f 244//244 210//210 209//209
f 217//217 245//245 244//244
f 245//245 246//246 244//244
f 244//244 246//246 210//210
f 246//246 211//211 210//210
f 218//218 247//247 245//245
f 247//247 248//248 245//245
f 245//245 248//248 246//246
f 248//248 249//249 246//246
f 246//246 249//249 211//211
f 249//249 212//212 211//211
f 219//219 250//250 247//247
f 250//250 251//251 247//247
f 247//247 251//251 248//248
f 251//251 252//252 248//248
f 248//248 252//252 249//249
f 252//252 253//253 249//249
f 249//249 253//253 212//212
f 253//253 213//213 212//212
f 220//220 254//254 250//250
f 254//254 255//255 250//250
f 250//250 255//255 251//251
f 255//255 256//256 251//251
f 251//251 256//256 252//252
f 256//256 257//257 252//252
f 252//252 257//257 253//253
f 257//257 258//258 253//253
f 253//253 258//258 213//213
f 258//258 214//214 213//213
f 221//221 259//259 254//254
f 259//259 260//260 254//254
f 254//254 260//260 255//255
f 260//260 261//261 255//255
f 255//255 261//261 256//256
f 261//261 262//262 256//256
f 256//256 262//262 257//257
f 262//262 263//263 257//257
f 257//257 263//263 258//258
f 263//263 264//264 258//258
f 258//258 264//264 214//214
f 264//264 215//215 214//214
f 222//222 180//180 259//259
f 180//180 179//179 259//259
f 259//259 179//179 260//260
f 179//179 178//178 260//260
f 260//260 178//178 261//261
f 178//178 177//177 261//261
f 261//261 177//177 262//262
f 177//177 176//176 262//262
f 262//262 176//176 263//263
f 176//176 175//175 263//263
f 263//263 175//175 264//264
f 175//175 174//174 264//264
f 264//264 174//174 215//215
f 174//174 9//9 215//215
f 209//209 202//202 12//12
f 210//210 265//265 209//209
f 211//211 266//266 210//210
f 212//212 268//268 211//211
f 213//213 271//271 212//212
f 214//214 275//275 213//213
f 215//215 280//280 214//214
f 209//209 265//265 202//202
f 265//265 203//203 202//202
f 210//210 266//266 265//265
f 266//266 267//267 265//265
f 265//265 267//267 203//203
f 267//267 204//204 203//203
f 211//211 268//268 266//266
f 268//268 269//269 266//266
f 266//266 269//269 267//267
f 269//269 270//270 267//267
f 267//267 270//270 204//204
f 270//270 205//205 204//204
f 212//212 271//271 268//268
f 271//271 272//272 268//268
f 268//268 272//272 269//269
f 272//272 273//273 269//269
f 269//269 273//273 270//270
f 273//273 274//274 270//270
f 270//270 274//274 205//205
f 274//274 206//206 205//205
f 213//213 275//275 271//271
f 275//275 276//276 271//271
f 271//271 276//276 272//272
f 276//276 277//277 272//272
f 272//272 277//277 273//273
f 277//277 278//278 273//273
f 273//273 278//278 274//274
f 278//278 279//279 274//274
f 274//274 279//279 206//206
f 279//279 207//207 206//206
f 214//214 280//280 275//275
f 280//280 281//281 275//275
f 275//275 281//281 276//276
f 281//281 282//282 276//276
f 276//276 282//282 277//277
f 282//282 283//283 277//277
f 277//277 283//283 278//278
f 283//283 284//284 278//278
f 278//278 284//284 279//279
f 284//284 285//285 279//279
f 279//279 285//285 207//207
f 285//285 208//208 207//207
f 215//215 173//173 280//280
f 173//173 172//172 280//280
f 280//280 172//172 281//281
f 172//172 171//171 281//281
f 281//281 171//171 282//282
f 171//171 170//170 282//282
f 282//282 170//170 283//283
f 170//170 169//169 283//283
f 283//283 169//169 284//284
f 169//169 168//168 284//284
f 284//284 168//168 285//285
f 168//168 167//167 285//285
f 285//285 167//167 208//208
f 167//167 8//8 208//208
f 202//202 188//188 12//12
f 203//203 286//286 202//202
f 204//204 287//287 203//203
f 205//205 289//289 204//204
f 206//206 292//292 205//205
f 207//207 296//296 206//206
f 208//208 301//301 207//207
f 202//202 286//286 188//188
f 286//286 189//189 188//188
f 203//203 287//287 286//286
f 287//287 288//288 286//286
f 286//286 288//288 189//189
f 288//288 190//190 189//189
f 204//204 289//289 287//287
f 289//289 290//290 287//287
f 287//287 290//290 288//288
f 290//290 291//291 288//288
f 288//288 291//291 190//190
f 291//291 191//191 190//190
f 205//205 292//292 289//289
f 292//292 293//293 289//289
f 289//289 293//293 290//290
f 293//293 294//294 290//290
f 290//290 294//294 291//291
f 294//294 295//295 291//291
f 291//291 295//295 191//191
f 295//295 192//192 191//191
f 206//206 296//296 292//292
f 296//296 297//297 292//292
f 292//292 297//297 293//293
f 297//297 298//298 293//293
f 293//293 298//298 294//294
f 298//298 299//299 294//294
f 294//294 299//299 295//295
f 299//299 300//300 295//295
f 295//295 300//300 192//192
f 300//300 193//193 192//192
f 207//207 301//301 296//296
f 301//301 302//302 296//296
f 296//296 302//302 297//297
f 302//302 303//303 297//297
f 297//297 303//303 298//298
f 303//303 304//304 298//298
f 298//298 304//304 299//299
f 304//304 305//305 299//299
f 299//299 305//305 300//300
f 305//305 306//306 300//300
f 300//300 306//306 193//193
f 306//306 194//194 193//193
f 208//208 166//166 301//301
f 166//166 165//165 301//301
f 301//301 165//165 302//302
f 165//165 164//164 302//302
f 302//302 164//164 303//303
f 164//164 163//163 303//303
f 303//303 163//163 304//304
f 163//163 162//162 304//304
f 304//304 162//162 305//305
f 162//162 161//161 305//305
f 305//305 161//161 306//306
f 161//161 160//160 306//306
f 306//306 160//160 194//194
f 160//160 7//7 194//194
f 188//188 201//201 12//12
f 189//189 307//307 188//188
f 190//190 308//308 189//189
f 191//191 310//310 190//190
f 192//192 313//313 191//191
f 193//193 317//317 192//192
f 194//194 322//322 193//193
f 188//188 307//307 201//201
f 307//307 200//200 201//201
f 189//189 308//308 307//307
f 308//308 309//309 307//307
f 307//307 309//309 200//200
f 309//309 199//199 200//200
f 190//190 310//310 308//308
f 310//310 311//311 308//308
f 308//308 311//311 309//309
f 311//311 312//312 309//309
f 309//309 312//312 199//199
f 312//312 198//198 199//199
f 191//191 313//313 310//310
f 313//313 314//314 310//310
f 310//310 314//314 311//311
f 314//314 315//315 311//311
f 311//311 315//315 312//312
f 315//315 316//316 312//312
f 312//312 316//316 198//198
f 316//316 197//197 198//198
f 192//192 317//317 313//313
f 317//317 318//318 313//313
f 313//313 318//318 314//314
f 318//318 319//319 314//314
f 314//314 319//319 315//315
f 319//319 320//320 315//315
f 315//315 320//320 316//316
f 320//320 321//321 316//316
f 316//316 321//321 197//197
f 321//321 196//196 197//197
f 193//193 322//322 317//317
f 322//322 323//323 317//317
f 317//317 323//323 318//318
f 323//323 324//324 318//318
f 318//318 324//324 319//319
f 324//324 325//325 319//319
f 319//319 325//325 320//320
f 325//325 326//326 320//320
f 320//320 326//326 321//321
f 326//326 327//327 321//321
f 321//321 327//327 196//196
f 327//327 195//195 196//196
f 194//194 159//159 322//322
f 159//159 158//158 322//322
f 322//322 158//158 323//323
f 158//158 157//157 323//323
f 323//323 157//157 324//324
f 157//157 156//156 324//324
f 324//324 156//156 325//325
f 156//156 155//155 325//325
f 325//325 155//155 326//326
f 155//155 154//154 326//326
f 326//326 154//154 327//327
f 154//154 153//153 327//327
f 327//327 153//153 195//195
f 153//153 11//11 195//195
f 96//96 187//187 11//11
f 95//95 328//328 96//96
f 94//94 329//329 95//95
f 93//93 331//331 94//94
f 92//92 334//334 93//93
f 91//91 338//338 92//92
f 90//90 343//343 91//91
f 96//96 328//328 187//187
f 328//328 186//186 187//187
f 95//95 329//329 328//328
f 329//329 330//330 328//328
f 328//328 330//330 186//186
f 330//330 185//185 186//186
f 94//94 331//331 329//329
f 331//331 332//332 329//329
f 329//329 332//332 330//330
f 332//332 333//333 330//330
f 330//330 333//333 185//185
f 333//333 184//184 185//185
f 93//93 334//334 331//331
f 334//334 335//335 331//331
f 331//331 335//335 332//332
f 335//335 336//336 332//332
f 332//332 336//336 333//333
f 336//336 337//337 333//333
f 333//333 337//337 184//184
f 337//337 183//183 184//184
f 92//92 338//338 334//334
f 338//338 339//339 334//334
f 334//334 339//339 335//335
f 339//339 340//340 335//335
f 335//335 340//340 336//336
f 340//340 341//341 336//336
f 336//336 341//341 337//337
f 341//341 342//342 337//337
f 337//337 342//342 183//183
f 342//342 182//182 183//183
f 91//91 343//343 338//338
f 343//343 344//344 338//338
f 338//338 344//344 339//339
f 344//344 345//345 339//339
f 339//339 345//345 340//340
f 345//345 346//346 340//340
f 340//340 346//346 341//341
f 346//346 347//347 341//341
f 341//341 347//347 342//342
f 347//347 348//348 342//342
f 342//342 348//348 182//182
f 348//348 181//181 182//182
f 90//90 145//145 343//343
f 145//145 144//144 343//343
f 343//343 144//144 344//344
f 144//144 143//143 344//344
f 344//344 143//143 345//345
f 143//143 142//142 345//345
f 345//345 142//142 346//346
f 142//142 141//141 346//346
f 346//346 141//141 347//347
f 141//141 140//140 347//347
f 347//347 140//140 348//348
f 140//140 139//139 348//348
f 348//348 139//139 181//181
f 139//139 10//10 181//181
f 152//152 180//180 10//10
f 151//151 349//349 152//152
f 150//150 350//350 151//151
f 149//149 352//352 150//150
f 148//148 355//355 149//149
f 147//147 359//359 148//148
f 146//146 364//364 147//147
f 152//152 349//349 180//180
f 349//349 179//179 180//180
f 151//151 350//350 349//349
f 350//350 351//351 349//349
f 349//349 351//351 179//179
f 351//351 178//178 179//179
f 150//150 352//352 350//350
f 352//352 353//353 350//350
f 350//350 353//353 351//351
f 353//353 354//354 351//351
f 351//351 354//354 178//178
f 354//354 177//177 178//178
f 149//149 355//355 352//352
f 355//355 356//356 352//352
f 352//352 356//356 353//353
f 356//356 357//357 353//353
f 353//353 357//357 354//354
f 357//357 358//358 354//354
f 354//354 358//358 177//177
f 358//358 176//176 177//177
f 148//148 359//359 355//355
f 359//359 360//360 355//355
f 355//355 360//360 356//356
f 360//360 361//361 356//356
f 356//356 361//361 357//357
f 361//361 362//362 357//357
f 357//357 362//362 358//358
f 362//362 363//363 358//358
f 358//358 363//363 176//176
f 363//363 175//175 176//176
f 147//147 364//364 359//359
f 364//364 365//365 359//359
f 359//359 365//365 360//360
f 365//365 366//366 360//360
f 360//360 366//366 361//361
f 366//366 367//367 361//361
f 361//361 367//367 362//362
f 367//367 368//368 362//362
f 362//362 368//368 363//363
f 368//368 369//369 363//363
f 363//363 369//369 175//175
f 369//369 174//174 175//175
f 146//146 131//131 364//364
f 131//131 130//130 364//364
f 364//364 130//130 365//365
f 130//130 129//129 365//365
f 365//365 129//129 366//366
f 129//129 128//128 366//366
f 366//366 128//128 367//367
f 128//128 127//127 367//367
f 367//367 127//127 368//368
f 127//127 126//126 368//368
f 368//368 126//126 369//369
f 126//126 125//125 369//369
f 369//369 125//125 174//174
f 125//125 9//9 174//174
f 138//138 173//173 9//9
f 137//137 370//370 138//138
f 136//136 371//371 137//137
f 135//135 373//373 136//136
f 134//134 376//376 135//135
f 133//133 380//380 134//134
f 132//132 385//385 133//133
f 138//138 370//370 173//173
f 370//370 172//172 173//173
f 137//137 371//371 370//370
f 371//371 372//372 370//370
f 370//370 372//372 172//172
f 372//372 171//171 172//172
f 136//136 373//373 371//371
f 373//373 374//374 371//371
f 371//371 374//374 372//372
f 374//374 375//375 372//372
f 372//372 375//375 171//171
f 375//375 170//170 171//171
f 135//135 376//376 373//373
f 376//376 377//377 373//373
f 373//373 377//377 374//374
f 377//377 378//378 374//374
f 374//374 378//378 375//375
f 378//378 379//379 375//375
f 375//375 379//379 170//170
f 379//379 169//169 170//170
f 134//134 380//380 376//376
f 380//380 381//381 376//376
f 376//376 381//381 377//377
f 381//381 382//382 377//377
f 377//377 382//382 378//378
f 382//382 383//383 378//378
f 378//378 383//383 379//379
f 383//383 384//384 379//379
f 379//379 384//384 169//169
f 384//384 168//168 169//169
f 133//133 385//385 380//380
f 385//385 386//386 380//380
f 380//380 386//386 381//381
f 386//386 387//387 381//381
f 381//381 387//387 382//382
f 387//387 388//388 382//382
f 382//382 388//388 383//383
f 388//388 389//389 383//383
f 383//383 389//389 384//384
f 389//389 390//390 384//384
f 384//384 390//390 168//168
f 390//390 167//167 168//168
f 132//132 117//117 385//385
f 117//117 116//116 385//385
f 385//385 116//116 386//386
f 116//116 115//115 386//386
f 386//386 115//115 387//387
f 115//115 114//114 387//387
f 387//387 114//114 388//388
f 114//114 113//113 388//388
f 388//388 113//113 389//389
f 113//113 112//112 389//389
f 389//389 112//112 390//390
f 112//112 111//111 390//390
f 390//390 111//111 167//167
f 111//111 8//8 167//167
f 124//124 166//166 8//8
f 123//123 391//391 124//124
f 122//122 392//392 123//123
f 121//121 394//394 122//122
f 120//120 397//397 121//121
f 119//119 401//401 120//120
f 118//118 406//406 119//119
f 124//124 391//391 166//166
f 391//391 165//165 166//166
f 123//123 392//392 391//391
f 392//392 393//393 391//391
f 391//391 393//393 165//165
f 393//393 164//164 165//165
f 122//122 394//394 392//392
f 394//394 395//395 392//392
f 392//392 395//395 393//393
f 395//395 396//396 393//393
f 393//393 396//396 164//164
f 396//396 163//163 164//164
f 121//121 397//397 394//394
f 397//397 398//398 394//394
f 394//394 398//398 395//395
f 398//398 399//399 395//395
f 395//395 399//399 396//396
f 399//399 400//400 396//396
f 396//396 400//400 163//163
f 400//400 162//162 163//163
f 120//120 401//401 397//397
f 401//401 402//402 397//397
f 397//397 402//402 398//398
f 402//402 403//403 398//398
f 398//398 403//403 399//399
f 403//403 404//404 399//399
f 399//399 404//404 400//400
f 404//404 405//405 400//400
f 400//400 405//405 162//162
f 405//405 161//161 162//162
f 119//119 406//406 401//401
f 406//406 407//407 401//401
f 401//401 407//407 402//402
f 407//407 408//408 402//402
f 402//402 408//408 403//403
f 408//408 409//409 403//403
f 403//403 409//409 404//404
f 409//409 410//410 404//404
f 404//404 410//410 405//405
f 410//410 411//411 405//405
f 405//405 411//411 161//161
f 411//411 160//160 161//161
f 118//118 103//103 406//406
f 103//103 102//102 406//406
f 406//406 102//102 407//407
f 102//102 101//101 407//407
f 407//407 101//101 408//408
f 101//101 100//100 408//408
f 408//408 100//100 409//409
f 100//100 99//99 409//409
f 409//409 99//99 410//410
f 99//99 98//98 410//410
f 410//410 98//98 411//411
f 98//98 97//97 411//411
f 411//411 97//97 160//160
f 97//97 7//7 160//160
f 110//110 159//159 7//7
f 109//109 412//412 110//110
f 108//108 413//413 109//109
f 107//107 415//415 108//108
f 106//106 418//418 107//107
f 105//105 422//422 106//106
f 104//104 427//427 105//105
f 110//110 412//412 159//159
f 412//412 158//158 159//159
f 109//109 413//413 412//412
f 413//413 414//414 412//412
f 412//412 414//414 158//158
f 414//414 157//157 158//158
f 108//108 415//415 413//413
f 415//415 416//416 413//413
f 413//413 416//416 414//414
f 416//416 417//417 414//414
f 414//414 417//417 157//157
f 417//417 156//156 157//157
f 107//107 418//418 415//415
f 418//418 419//419 415//415
f 415//415 419//419 416//416
f 419//419 420//420 416//416
f 416//416 420//420 417//417
f 420//420 421//421 417//417
f 417//417 421//421 156//156
f 421//421 155//155 156//156
f 106//106 422//422 418//418
f 422//422 423//423 418//418
f 418//418 423//423 419//419
f 423//423 424//424 419//419
f 419//419 424//424 420//420
f 424//424 425//425 420//420
f 420//420 425//425 421//421
f 425//425 426//426 421//421
f 421//421 426//426 155//155
f 426//426 154//154 155//155
f 105//105 427//427 422//422
f 427//427 428//428 422//422
f 422//422 428//428 423//423
f 428//428 429//429 423//423
f 423//423 429//429 424//424
f 429//429 430//430 424//424
f 424//424 430//430 425//425
f 430//430 431//431 425//425
f 425//425 431//431 426//426
f 431//431 432//432 426//426
f 426//426 432//432 154//154
f 432//432 153//153 154//154
f 104//104 89//89 427//427
f 89//89 88//88 427//427
f 427//427 88//88 428//428
f 88//88 87//87 428//428
f 428//428 87//87 429//429
f 87//87 86//86 429//429
f 429//429 86//86 430//430
f 86//86 85//85 430//430
f 430//430 85//85 431//431
f 85//85 84//84 431//431
f 431//431 84//84 432//432
f 84//84 83//83 432//432
f 432//432 83//83 153//153
f 83//83 11//11 153//153
f 139//139 152//152 10//10
f 140//140 433//433 139//139
f 141//141 434//434 140//140
f 142//142 436//436 141//141
f 143//143 439//439 142//142
f 144//144 443//443 143//143
f 145//145 448//448 144//144
f 139//139 433//433 152//152
f 433//433 151//151 152//152
f 140//140 434//434 433//433
f 434//434 435//435 433//433
f 433//433 435//435 151//151
f 435//435 150//150 151//151
f 141//141 436//436 434//434
f 436//436 437//437 434//434
f 434//434 437//437 435//435
f 437//437 438//438 435//435
f 435//435 438//438 150//150
f 438//438 149//149 150//150
f 142//142 439//439 436//436
f 439//439 440//440 436//436
f 436//436 440//440 437//437
f 440//440 441//441 437//437
f 437//437 441//441 438//438
f 441//441 442//442 438//438
f 438//438 442//442 149//149
f 442//442 148//148 149//149
f 143//143 443//443 439//439
f 443//443 444//444 439//439
f 439//439 444//444 440//440
f 444//444 445//445 440//440
f 440//440 445//445 441//441
f 445//445 446//446 441//441
f 441//441 446//446 442//442
f 446//446 447//447 442//442
f 442//442 447//447 148//148
f 447//447 147//147 148//148
f 144//144 448//448 443//443
f 448//448 449//449 443//443
f 443//443 449//449 444//444
f 449//449 450//450 444//444
f 444//444 450//450 445//445
f 450//450 451//451 445//445
f 445//445 451//451 446//446
f 451//451 452//452 446//446
f 446//446 452//452 447//447
f 452//452 453//453 447//447
f 447//447 453//453 147//147
f 453//453 146//146 147//147
f 145//145 82//82 448//448
f 82//82 81//81 448//448
f 448//448 81//81 449//449
f 81//81 80//80 449//449
f 449//449 80//80 450//450
f 80//80 79//79 450//450
f 450//450 79//79 451//451
f 79//79 78//78 451//451
f 451//451 78//78 452//452
f 78//78 77//77 452//452
f 452//452 77//77 453//453
f 77//77 76//76 453//453
f 453//453 76//76 146//146
f 76//76 5//5 146//146
f 125//125 138//138 9//9
f 126//126 454//454 125//125
f 127//127 455//455 126//126
f 128//128 457//457 127//127
f 129//129 460//460 128//128
f 130//130 464//464 129//129
f 131//131 469//469 130//130
f 125//125 454//454 138//138
f 454//454 137//137 138//138
f 126//126 455//455 454//454
f 455//455 456//456 454//454
f 454//454 456//456 137//137
f 456//456 136//136 137//137
f 127//127 457//457 455//455
f 457//457 458//458 455//455
f 455//455 458//458 456//456
f 458//458 459//459 456//456
f 456//456 459//459 136//136
f 459//459 135//135 136//136
f 128//128 460//460 457//457
f 460//460 461//461 457//457
f 457//457 461//461 458//458
f 461//461 462//462 458//458
f 458//458 462//462 459//459
f 462//462 463//463 459//459
f 459//459 463//463 135//135
f 463//463 134//134 135//135
f 129//129 464//464 460//460
f 464//464 465//465 460//460
f 460//460 465//465 461//461
f 465//465 466//466 461//461
f 461//461 466//466 462//462
f 466//466 467//467 462//462
f 462//462 467//467 463//463
f 467//467 468//468 463//463
f 463//463 468//468 134//134
f 468//468 133//133 134//134
f 130//130 469//469 464//464
f 469//469 470//470 464//464
f 464//464 470//470 465//465
f 470//470 471//471 465//465
f 465//465 471//471 466//466
f 471//471 472//472 466//466
f 466//466 472//472 467//467
f 472//472 473//473 467//467
f 467//467 473//473 468//468
f 473//473 474//474 468//468
f 468//468 474//474 133//133
f 474//474 132//132 133//133
f 131//131 75//75 469//469
f 75//75 74//74 469//469
f 469//469 74//74 470//470
f 74//74 73//73 470//470
f 470//470 73//73 471//471
f 73//73 72//72 471//471
f 471//471 72//72 472//472
f 72//72 71//71 472//472
f 472//472 71//71 473//473
f 71//71 70//70 473//473
f 473//473 70//70 474//474
f 70//70 69//69 474//474
f 474//474 69//69 132//132
f 69//69 4//4 132//132
f 111//111 124//124 8//8
f 112//112 475//475 111//111
f 113//113 476//476 112//112
f 114//114 478//478 113//113
f 115//115 481//481 114//114
f 116//116 485//485 115//115
f 117//117 490//490 116//116
f 111//111 475//475 124//124
f 475//475 123//123 124//124
f 112//112 476//476 475//475
f 476//476 477//477 475//475
f 475//475 477//477 123//123
f 477//477 122//122 123//123
f 113//113 478//478 476//476
f 478//478 479//479 476//476
f 476//476 479//479 477//477
f 479//479 480//480 477//477
f 477//477 480//480 122//122
f 480//480 121//121 122//122
f 114//114 481//481 478//478
f 481//481 482//482 478//478
f 478//478 482//482 479//479
f 482//482 483//483 479//479
f 479//479 483//483 480//480
f 483//483 484//484 480//480
f 480//480 484//484 121//121
f 484//484 120//120 121//121
f 115//115 485//485 481//481
f 485//485 486//486 481//481
f 481//481 486//486 482//482
f 486//486 487//487 482//482
f 482//482 487//487 483//483
f 487//487 488//488 483//483
f 483//483 488//488 484//484
f 488//488 489//489 484//484
f 484//484 489//489 120//120
f 489//489 119//119 120//120
f 116//116 490//490 485//485
f 490//490 491//491 485//485
f 485//485 491//491 486//486
f 491//491 492//492 486//486
f 486//486 492//492 487//487
f 492//492 493//493 487//487
f 487//487 493//493 488//488
f 493//493 494//494 488//488
f 488//488 494//494 489//489
f 494//494 495//495 489//489
f 489//489 495//495 119//119
f 495//495 118//118 119//119
f 117//117 61//61 490//490
f 61//61 60//60 490//490
f 490//490 60//60 491//491
f 60//60 59//59 491//491
f 491//491 59//59 492//492
f 59//59 58//58 492//492
f 492//492 58//58 493//493
f 58//58 57//57 493//493
f 493//493 57//57 494//494
f 57//57 56//56 494//494
f 494//494 56//56 495//495
f 56//56 55//55 495//495
f 495//495 55//55 118//118
f 55//55 3//3 118//118
f 97//97 110//110 7//7
f 98//98 496//496 97//97
f 99//99 497//497 98//98
f 100//100 499//499 99//99
f 101//101 502//502 100//100
f 102//102 506//506 101//101
f 103//103 511//511 102//102
f 97//97 496//496 110//110
f 496//496 109//109 110//110
f 98//98 497//497 496//496
f 497//497 498//498 496//496
f 496//496 498//498 109//109
f 498//498 108//108 109//109
f 99//99 499//499 497//497
f 499//499 500//500 497//497
f 497//497 500//500 498//498
f 500//500 501//501 498//498
f 498//498 501//501 108//108
f 501//501 107//107 108//108
f 100//100 502//502 499//499
f 502//502 503//503 499//499
f 499//499 503//503 500//500
f 503//503 504//504 500//500
f 500//500 504//504 501//501
f 504//504 505//505 501//501
f 501//501 505//505 107//107
f 505//505 106//106 107//107
f 101//101 506//506 502//502
f 506//506 507//507 502//502
f 502//502 507//507 503//503
f 507//507 508//508 503//503
f 503//503 508//508 504//504
f 508//508 509//509 504//504
f 504//504 509//509 505//505
f 509//509 510//510 505//505
f 505//505 510//510 106//106
f 510//510 105//105 106//106
f 102//102 511//511 506//506
f 511//511 512//512 506//506
f 506//506 512//512 507//507
f 512//512 513//513 507//507
f 507//507 513//513 508//508
f 513//513 514//514 508//508
f 508//508 514//514 509//509
f 514//514 515//515 509//509
f 509//509 515//515 510//510
f 515//515 516//516 510//510
f 510//510 516//516 105//105
f 516//516 104//104 105//105
f 103//103 33//33 511//511
f 33//33 32//32 511//511
f 511//511 32//32 512//512
f 32//32 31//31 512//512
f 512//512 31//31 513//513
f 31//31 30//30 513//513
f 513//513 30//30 514//514
f 30//30 29//29 514//514
f 514//514 29//29 515//515
f 29//29 28//28 515//515
f 515//515 28//28 516//516
f 28//28 27//27 516//516
f 516//516 27//27 104//104
f 27//27 2//2 104//104
f 83//83 96//96 11//11
f 84//84 517//517 83//83
f 85//85 518//518 84//84
f 86//86 520//520 85//85
f 87//87 523//523 86//86
f 88//88 527//527 87//87
f 89//89 532//532 88//88
f 83//83 517//517 96//96
f 517//517 95//95 96//96
f 84//84 518//518 517//517
f 518//518 519//519 517//517
f 517//517 519//519 95//95
f 519//519 94//94 95//95
f 85//85 520//520 518//518
f 520//520 521//521 518//518
f 518//518 521//521 519//519
f 521//521 522//522 519//519
f 519//519 522//522 94//94
f 522//522 93//93 94//94
f 86//86 523//523 520//520
f 523//523 524//524 520//520
f 520//520 524//524 521//521
f 524//524 525//525 521//521
f 521//521 525//525 522//522
f 525//525 526//526 522//522
f 522//522 526//526 93//93
f 526//526 92//92 93//93
f 87//87 527//527 523//523
f 527//527 528//528 523//523
f 523//523 528//528 524//524
f 528//528 529//529 524//524
f 524//524 529//529 525//525
f 529//529 530//530 525//525
f 525//525 530//530 526//526
f 530//530 531//531 526//526
f 526//526 531//531 92//92
f 531//531 91//91 92//92
f 88//88 532//532 527//527
f 532//532 533//533 527//527
f 527//527 533//533 528//528
f 533//533 534//534 528//528
f 528//528 534//534 529//529
f 534//534 535//535 529//529
f 529//529 535//535 530//530
f 535//535 536//536 530//530
f 530//530 536//536 531//531
f 536//536 537//537 531//531
f 531//531 537//537 91//91
f 537//537 90//90 91//91
f 89//89 40//40 532//532
f 40//40 39//39 532//532
f 532//532 39//39 533//533
f 39//39 38//38 533//533
f 533//533 38//38 534//534
f 38//38 37//37 534//534
f 534//534 37//37 535//535
f 37//37 36//36 535//535
f 535//535 36//36 536//536
f 36//36 35//35 536//536
f 536//536 35//35 537//537
f 35//35 34//34 537//537
f 537//537 34//34 90//90
f 34//34 6//6 90//90
f 47//47 82//82 6//6
f 46//46 538//538 47//47
f 45//45 539//539 46//46
f 44//44 541//541 45//45
f 43//43 544//544 44//44
f 42//42 548//548 43//43
f 41//41 553//553 42//42
f 47//47 538//538 82//82
f 538//538 81//81 82//82
f 46//46 539//539 538//538
f 539//539 540//540 538//538
f 538//538 540//540 81//81
f 540//540 80//80 81//81
f 45//45 541//541 539//539
f 541//541 542//542 539//539
f 539//539 542//542 540//540
f 542//542 543//543 540//540
f 540//540 543//543 80//80
f 543//543 79//79 80//80
f 44//44 544//544 541//541
f 544//544 545//545 541//541
f 541//541 545//545 542//542
f 545//545 546//546 542//542
f 542//542 546//546 543//543
f 546//546 547//547 543//543
f 543//543 547//547 79//79
f 547//547 78//78 79//79
f 43//43 548//548 544//544
f 548//548 549//549 544//544
f 544//544 549//549 545//545
f 549//549 550//550 545//545
f 545//545 550//550 546//546
f 550//550 551//551 546//546
f 546//546 551//551 547//547
f 551//551 552//552 547//547
f 547//547 552//552 78//78
f 552//552 77//77 78//78
f 42//42 553//553 548//548
f 553//553 554//554 548//548
f 548//548 554//554 549//549
f 554//554 555//555 549//549
f 549//549 555//555 550//550
f 555//555 556//556 550//550
f 550//550 556//556 551//551
f 556//556 557//557 551//551
f 551//551 557//557 552//552
f 557//557 558//558 552//552
f 552//552 558//558 77//77
f 558//558 76//76 77//77
f 41//41 68//68 553//553
f 68//68 67//67 553//553
f 553//553 67//67 554//554
f 67//67 66//66 554//554
f 554//554 66//66 555//555
f 66//66 65//65 555//555
f 555//555 65//65 556//556
f 65//65 64//64 556//556
f 556//556 64//64 557//557
f 64//64 63//63 557//557
f 557//557 63//63 558//558
f 63//63 62//62 558//558
f 558//558 62//62 76//76
f 62//62 5//5 76//76
f 62//62 75//75 5//5
f 63//63 559//559 62//62
f 64//64 560//560 63//63
f 65//65 562//562 64//64
f 66//66 565//565 65//65
f 67//67 569//569 66//66
f 68//68 574//574 67//67
f 62//62 559//559 75//75
f 559//559 74//74 75//75
f 63//63 560//560 559//559
f 560//560 561//561 559//559
f 559//559 561//561 74//74
f 561//561 73//73 74//74
f 64//64 562//562 560//560
f 562//562 563//563 560//560
f 560//560 563//563 561//561
f 563//563 564//564 561//561
f 561//561 564//564 73//73
f 564//564 72//72 73//73
f 65//65 565//565 562//562
f 565//565 566//566 562//562
f 562//562 566//566 563//563
f 566//566 567//567 563//563
f 563//563 567//567 564//564
f 567//567 568//568 564//564
f 564//564 568//568 72//72
f 568//568 71//71 72//72
f 66//66 569//569 565//565
f 569//569 570//570 565//565
f 565//565 570//570 566//566
f 570//570 571//571 566//566
f 566//566 571//571 567//567
f 571//571 572//572 567//567
f 567//567 572//572 568//568
f 572//572 573//573 568//568
f 568//568 573//573 71//71
f 573//573 70//70 71//71
f 67//67 574//574 569//569
f 574//574 575//575 569//569
f 569//569 575//575 570//570
f 575//575 576//576 570//570
f 570//570 576//576 571//571
f 576//576 577//577 571//571
f 571//571 577//577 572//572
f 577//577 578//578 572//572
f 572//572 578//578 573//573
f 578//578 579//579 573//573
f 573//573 579//579 70//70
f 579//579 69//69 70//70
f 68//68 54//54 574//574
f 54//54 53//53 574//574
f 574//574 53//53 575//575
f 53//53 52//52 575//575
f 575//575 52//52 576//576
f 52//52 51//51 576//576
f 576//576 51//51 577//577
f 51//51 50//50 577//577
f 577//577 50//50 578//578
f 50//50 49//49 578//578
f 578//578 49//49 579//579
f 49//49 48//48 579//579
f 579//579 48//48 69//69
f 48//48 4//4 69//69
f 48//48 61//61 4//4
f 49//49 580//580 48//48
f 50//50 581//581 49//49
f 51//51 583//583 50//50
f 52//52 586//586 51//51
f 53//53 590//590 52//52
f 54//54 595//595 53//53
f 48//48 580//580 61//61
f 580//580 60//60 61//61
f 49//49 581//581 580//580
f 581//581 582//582 580//580
f 580//580 582//582 60//60
f 582//582 59//59 60//60
f 50//50 583//583 581//581
f 583//583 584//584 581//581
f 581//581 584//584 582//582
f 584//584 585//585 582//582
f 582//582 585//585 59//59
f 585//585 58//58 59//59
f 51//51 586//586 583//583
f 586//586 587//587 583//583
f 583//583 587//587 584//584
f 587//587 588//588 584//584
f 584//584 588//588 585//585
f 588//588 589//589 585//585
f 585//585 589//589 58//58
f 589//589 57//57 58//58
f 52//52 590//590 586//586
f 590//590 591//591 586//586
f 586//586 591//591 587//587
f 591//591 592//592 587//587
f 587//587 592//592 588//588
f 592//592 593//593 588//588
f 588//588 593//593 589//589
f 593//593 594//594 589//589
f 589//589 594//594 57//57
f 594//594 56//56 57//57
f 53//53 595//595 590//590
f 595//595 596//596 590//590
f 590//590 596//596 591//591
f 596//596 597//597 591//591
f 591//591 597//597 592//592
f 597//597 598//598 592//592
f 592//592 598//598 593//593
f 598//598 599//599 593//593
f 593//593 599//599 594//594
f 599//599 600//600 594//594
f 594//594 600//600 56//56
f 600//600 55//55 56//56
f 54//54 19//19 595//595
f 19//19 18//18 595//595
f 595//595 18//18 596//596
f 18//18 17//17 596//596
f 596//596 17//17 597//597
f 17//17 16//16 597//597
f 597//597 16//16 598//598
f 16//16 15//15 598//598
f 598//598 15//15 599//599
f 15//15 14//14 599//599
f 599//599 14//14 600//600
f 14//14 13//13 600//600
f 600//600 13//13 55//55
f 13//13 3//3 55//55
f 34//34 47//47 6//6
f 35//35 601//601 34//34
f 36//36 602//602 35//35
f 37//37 604//604 36//36
f 38//38 607//607 37//37
f 39//39 611//611 38//38
f 40//40 616//616 39//39
f 34//34 601//601 47//47
f 601//601 46//46 47//47
f 35//35 602//602 601//601
f 602//602 603//603 601//601
f 601//601 603//603 46//46
f 603//603 45//45 46//46
f 36//36 604//604 602//602
f 604//604 605//605 602//602
f 602//602 605//605 603//603
f 605//605 606//606 603//603
f 603//603 606//606 45//45
f 606//606 44//44 45//45
f 37//37 607//607 604//604
f 607//607 608//608 604//604
f 604//604 608//608 605//605
f 608//608 609//609 605//605
f 605//605 609//609 606//606
f 609//609 610//610 606//606
f 606//606 610//610 44//44
f 610//610 43//43 44//44
f 38//38 611//611 607//607
f 611//611 612//612 607//607
f 607//607 612//612 608//608
f 612//612 613//613 608//608
f 608//608 613//613 609//609
f 613//613 614//614 609//609
f 609//609 614//614 610//610
f 614//614 615//615 610//610
f 610//610 615//615 43//43
f 615//615 42//42 43//43
f 39//39 616//616 611//611
f 616//616 617//617 611//611
f 611//611 617//617 612//612
f 617//617 618//618 612//612
f 612//612 618//618 613//613
f 618//618 619//619 613//613
f 613//613 619//619 614//614
f 619//619 620//620 614//614
f 614//614 620//620 615//615
f 620//620 621//621 615//615
f 615//615 621//621 42//42
f 621//621 41//41 42//42
f 40//40 26//26 616//616
f 26//26 25//25 616//616
f 616//616 25//25 617//617
f 25//25 24//24 617//617
f 617//617 24//24 618//618
f 24//24 23//23 618//618
f 618//618 23//23 619//619
f 23//23 22//22 619//619
f 619//619 22//22 620//620
f 22//22 21//21 620//620
f 620//620 21//21 621//621
f 21//21 20//20 621//621
f 621//621 20//20 41//41
f 20//20 1//1 41//41
f 13//13 33//33 3//3
f 14//14 622//622 13//13
f 15//15 623//623 14//14
f 16//16 625//625 15//15
f 17//17 628//628 16//16
f 18//18 632//632 17//17
f 19//19 637//637 18//18
f 13//13 622//622 33//33
f 622//622 32//32 33//33
f 14//14 623//623 622//622
f 623//623 624//624 622//622
f 622//622 624//624 32//32
f 624//624 31//31 32//32
f 15//15 625//625 623//623
f 625//625 626//626 623//623
f 623//623 626//626 624//624
f 626//626 627//627 624//624
f 624//624 627//627 31//31
f 627//627 30//30 31//31
f 16//16 628//628 625//625
f 628//628 629//629 625//625
f 625//625 629//629 626//626
f 629//629 630//630 626//626
f 626//626 630//630 627//627
f 630//630 631//631 627//627
f 627//627 631//631 30//30
f 631//631 29//29 30//30
f 17//17 632//632 628//628
f 632//632 633//633 628//628
f 628//628 633//633 629//629
f 633//633 634//634 629//629
f 629//629 634//634 630//630
f 634//634 635//635 630//630
f 630//630 635//635 631//631
f 635//635 636//636 631//631
f 631//631 636//636 29//29
f 636//636 28//28 29//29
f 18//18 637//637 632//632
f 637//637 638//638 632//632
f 632//632 638//638 633//633
f 638//638 639//639 633//633
f 633//633 639//639 634//634
f 639//639 640//640 634//634
f 634//634 640//640 635//635
f 640//640 641//641 635//635
f 635//635 641//641 636//636
f 641//641 642//642 636//636
f 636//636 642//642 28//28
f 642//642 27//27 28//28
f 19//19 20//20 637//637
f 20//20 21//21 637//637
f 637//637 21//21 638//638
f 21//21 22//22 638//638
f 638//638 22//22 639//639
f 22//22 23//23 639//639
f 639//639 23//23 640//640
f 23//23 24//24 640//640
f 640//640 24//24 641//641
f 24//24 25//25 641//641
f 641//641 25//25 642//642
f 25//25 26//26 642//642
f 642//642 26//26 27//27
f 26//26 2//2 27//27
