# Blender 4.5.3 LTS
# www.blender.org
o Cube.001
v -0.034984 0.009007 0.327236
v 0.566423 0.009007 1.427031
v 0.566423 -0.000033 1.427031
v 0.566423 -0.009074 1.427031
v 0.335055 -0.009074 1.500910
v 0.316618 -0.000033 1.504984
v 0.335055 0.009007 1.500910
v 0.277132 -0.009074 1.374611
v 0.259776 -0.000033 1.378304
v 0.277132 0.009007 1.374611
v 0.038245 -0.009074 0.737855
v -1.097650 -0.018114 0.668416
v -0.023746 -0.018114 -0.152897
v -0.058524 -0.018114 -0.149560
v -0.086453 0.001117 -0.135885
v 0.025054 -0.000033 0.739062
v 0.038245 0.009007 0.737855
v 0.167614 -0.009074 1.125712
v 0.152911 -0.000033 1.128070
v 0.167613 0.009007 1.125712
v 0.073921 -0.009074 0.869657
v 0.060417 -0.000033 0.871173
v 0.073921 0.009007 0.869657
v -0.011662 -0.009074 0.466143
v -0.024378 -0.000033 0.466591
v -0.011662 0.009007 0.466143
v 0.009791 -0.009074 0.603608
v -0.003183 -0.000033 0.604519
v 0.009791 0.009007 0.603607
v 0.117151 -0.009074 0.998971
v 0.103174 -0.000033 1.000858
v 0.117151 0.009007 0.998971
v -0.713369 -0.018114 -1.166294
v -0.617823 -0.018114 -1.071411
v -0.526238 -0.018114 -0.970208
v -0.448603 -0.018114 -0.883839
v -0.375878 -0.018114 -0.766634
v -0.303786 -0.018114 -0.649671
v -0.243812 -0.018114 -0.526709
v -0.195088 -0.018114 -0.398111
v -0.152559 -0.018114 -0.263035
v -0.519357 0.018047 -1.268363
v -0.444696 0.018047 -1.155384
v -0.369437 0.018047 -1.041954
v -0.299810 0.018047 -0.925117
v -0.237482 0.018047 -0.804368
v -0.182581 0.018047 -0.679872
v -0.134664 0.018047 -0.551836
v -0.093219 0.018047 -0.419857
v -0.049804 0.018047 -0.285664
v -0.152559 0.018047 -0.263035
v -0.195089 0.018047 -0.398111
v -0.243812 0.018047 -0.526710
v -0.303786 0.018047 -0.649671
v -0.375879 0.018047 -0.766634
v -0.448603 0.018047 -0.883839
v -0.526238 0.018047 -0.970208
v -0.617823 0.018047 -1.071411
v -0.713370 0.018047 -1.166294
v -0.193400 -0.000033 -0.249631
v -0.228360 -0.000033 -0.387629
v -0.277009 -0.000033 -0.515457
v -0.336906 -0.000033 -0.637720
v -0.408968 -0.000033 -0.753887
v -0.481703 -0.000033 -0.870133
v -0.559362 -0.000033 -0.955341
v -0.650886 -0.000033 -1.055202
v -0.745828 -0.000033 -1.148927
v -0.049805 -0.018114 -0.285664
v -0.093219 -0.018114 -0.419857
v -0.134664 -0.018114 -0.551837
v -0.182582 -0.018114 -0.679872
v -0.237482 -0.018114 -0.804367
v -0.299810 -0.018114 -0.925117
v -0.369438 -0.018114 -1.041954
v -0.444696 -0.018114 -1.155385
v -0.519357 -0.018114 -1.268362
v -0.817254 -0.000033 -1.270240
v -0.597563 0.018047 -1.383513
v -0.777285 0.018047 -1.292834
v -0.597563 -0.018114 -1.383513
v -0.777285 -0.018114 -1.292834
v 0.223218 -0.009074 1.250257
v 0.207395 -0.000033 1.253231
v 0.223217 0.009007 1.250256
v 0.163884 0.009007 -0.012078
v 0.164496 -0.000033 0.000542
v 0.163884 -0.009074 -0.012078
v 1.265433 -0.018114 -0.573011
v -0.013920 0.018047 0.189906
v 0.020975 0.018047 0.191646
v 0.566423 -0.018114 1.427031
v 0.375455 -0.018114 1.490702
v 0.566423 0.018047 1.427031
v 0.375455 0.018047 1.490702
v 0.609245 -0.000033 1.410469
v 0.314766 -0.018114 1.365431
v 0.257270 -0.018114 1.242824
v 0.199250 -0.018114 1.119682
v -0.058524 0.018047 -0.149560
v -0.023746 0.018047 -0.152897
v -1.192716 -0.018114 0.763780
v 0.147293 -0.018114 0.993987
v 0.103126 -0.018114 0.865478
v 0.066852 -0.018114 0.734339
v 0.037999 -0.018114 0.600711
v 0.016123 -0.018114 0.464116
v -0.007381 -0.018114 0.325048
v 0.556158 -0.000033 1.280084
v 0.475805 -0.000033 1.173587
v -0.184111 -0.009074 0.049098
v -0.186545 -0.000033 0.036700
v -0.184111 0.009007 0.049098
v -0.412080 0.009007 -1.167675
v -0.396856 -0.000033 -1.172911
v -0.412080 -0.009074 -1.167675
v -0.270709 0.009007 -0.934419
v -0.257153 -0.000033 -0.938311
v -0.270709 -0.009074 -0.934419
v -0.107173 0.009007 -0.558792
v -0.094469 -0.000033 -0.561575
v -0.107174 -0.009074 -0.558792
v -0.066022 0.009007 -0.425889
v -0.053504 -0.000033 -0.428176
v -0.066022 -0.009074 -0.425889
v -0.209191 0.009007 -0.812736
v -0.196049 -0.000033 -0.816193
v -0.209191 -0.009074 -0.812736
v -0.339010 0.009007 -1.052505
v -0.324805 -0.000033 -1.056970
v -0.339010 -0.009074 -1.052506
v -0.154786 0.009007 -0.687497
v -0.141909 -0.000033 -0.690604
v -0.154786 -0.009074 -0.687498
v -0.483450 0.009007 -1.282901
v -0.466813 -0.000033 -1.289071
v -0.483450 -0.009074 -1.282901
v -0.559069 0.009007 -1.399470
v -0.541418 -0.000033 -1.406173
v -0.559069 -0.009074 -1.399470
v -0.777285 -0.009074 -1.292834
v -0.777285 -0.000033 -1.292834
v -0.777285 0.009007 -1.292834
v -0.022810 0.009007 -0.291830
v -0.010417 -0.000033 -0.294288
v -0.022810 -0.009074 -0.291830
v -0.316927 -0.009074 0.074902
v -0.319362 -0.000033 0.062503
v -0.316927 0.009007 0.074901
v -0.161104 0.001117 0.138844
v -0.174726 -0.018114 0.110889
v -0.177996 -0.018114 0.076104
v -1.319378 0.009007 0.827452
v -1.319378 -0.000033 0.827452
v -1.319378 -0.009074 0.827452
v -1.425595 -0.009074 0.609033
v -1.432264 -0.000033 0.591368
v -1.425595 0.009007 0.609033
v -1.308881 -0.009074 0.533638
v -1.315019 -0.000033 0.516988
v -1.308881 0.009007 0.533638
v -0.712847 -0.009074 0.206118
v -0.715929 -0.000033 0.193235
v -0.712847 0.009007 0.206118
v -1.078209 -0.009074 0.389640
v -1.082646 -0.000033 0.375426
v -1.078209 0.009007 0.389640
v -0.838190 -0.009074 0.260282
v -0.841622 -0.000033 0.247133
v -0.838191 0.009007 0.260281
v -0.451069 -0.009074 0.117856
v -0.453332 -0.000033 0.105334
v -0.451069 0.009007 0.117856
v -0.584051 -0.009074 0.158752
v -0.586809 -0.000033 0.146042
v -0.584050 0.009007 0.158752
v -0.959991 -0.009074 0.321566
v -0.963857 -0.000033 0.308002
v -0.959991 0.009007 0.321566
v -1.193518 -0.009074 0.462489
v -1.198725 -0.000033 0.447254
v -1.193518 0.009007 0.462488
v -0.177996 0.018047 0.076104
v -0.174726 0.018047 0.110889
v -1.319378 -0.018114 0.827452
v -1.409712 -0.018114 0.647557
v -1.319378 0.018047 0.827452
v -1.409712 0.018047 0.647557
v -1.296861 -0.000033 0.867465
v -1.294411 -0.018114 0.569572
v -1.181291 -0.018114 0.495128
v 0.003249 0.009007 -0.159063
v 0.015642 -0.000033 -0.161522
v 0.003249 -0.009074 -0.159063
v -1.067716 -0.018114 0.420088
v -0.950745 -0.018114 0.350685
v -0.829876 -0.018114 0.288589
v -0.705275 -0.018114 0.233928
v -0.577148 -0.018114 0.186256
v -0.445088 -0.018114 0.145064
v -0.310812 -0.018114 0.101908
v -1.175411 -0.000033 0.796271
v -1.081504 -0.000033 0.701510
v -0.981467 -0.000033 0.610178
v -0.896110 -0.000033 0.532683
v -0.779725 -0.000033 0.460171
v -0.663420 -0.000033 0.388333
v -0.541042 -0.000033 0.328670
v -0.413121 -0.000033 0.280267
v -0.275056 -0.000033 0.245572
v -1.192716 0.018047 0.763781
v -1.097650 0.018047 0.668417
v -0.996271 0.018047 0.577026
v -0.909753 0.018047 0.499557
v -0.792408 0.018047 0.427058
v -0.675308 0.018047 0.355190
v -0.552231 0.018047 0.295452
v -0.423539 0.018047 0.246976
v -0.288381 0.018047 0.204706
v -0.310813 0.018047 0.101908
v -0.445088 0.018047 0.145064
v -0.577148 0.018047 0.186256
v -0.705275 0.018047 0.233927
v -0.829876 0.018047 0.288588
v -0.950745 0.018047 0.350684
v -1.067715 0.018047 0.420087
v -1.181290 0.018047 0.495128
v -1.294412 0.018047 0.569572
v -0.288381 -0.018114 0.204705
v -0.423539 -0.018114 0.246975
v -0.552231 -0.018114 0.295452
v -0.675307 -0.018114 0.355189
v -0.792408 -0.018114 0.427057
v -0.909753 -0.018114 0.499556
v -0.996270 -0.018114 0.577026
v 0.399723 -0.000033 1.061514
v 0.335235 -0.000033 0.965949
v 0.280118 -0.000033 0.840388
v 0.225656 -0.000033 0.715002
v 0.184114 -0.000033 0.585348
v 0.154509 -0.000033 0.451819
v 0.139920 -0.000033 0.310210
v 0.521526 0.018047 1.292564
v 0.440742 0.018047 1.184833
v 0.364793 0.018047 1.071423
v 0.300498 0.018047 0.974713
v 0.245531 0.018047 0.848204
v 0.191154 0.018047 0.722026
v 0.149637 0.018047 0.591670
v 0.120069 0.018047 0.457367
v 0.097569 0.018047 0.317552
v -0.007382 0.018047 0.325048
v 0.016123 0.018047 0.464116
v 0.037999 0.018047 0.600710
v 0.066852 0.018047 0.734339
v 0.103126 0.018047 0.865478
v 0.147292 0.018047 0.993987
v 0.199249 0.018047 1.119682
v 0.257270 0.018047 1.242823
v 0.314766 0.018047 1.365431
v 0.097568 -0.018114 0.317552
v 0.120068 -0.018114 0.457367
v 0.149636 -0.018114 0.591670
v 0.191153 -0.018114 0.722026
v 0.245530 -0.018114 0.848203
v 0.300497 -0.018114 0.974713
v 0.364793 -0.018114 1.071422
v 0.440741 -0.018114 1.184833
v 0.521525 -0.018114 1.292564
v 0.050591 0.001117 0.182163
v 0.020975 -0.018114 0.191646
v -0.013920 -0.018114 0.189906
v 1.157547 -0.018114 -0.492435
v -0.047603 -0.000033 0.327872
v -0.034984 -0.009074 0.327236
v 0.299038 -0.009074 -0.018357
v 0.299650 -0.000033 -0.005737
v 0.299039 0.009007 -0.018357
v 0.154130 0.001117 -0.104211
v 0.163556 -0.018114 -0.074576
v 0.161749 -0.018114 -0.039685
v 1.399987 0.009007 -0.617651
v 1.399987 -0.000033 -0.617651
v 1.399987 -0.009074 -0.617651
v 1.473421 -0.009074 -0.386142
v 1.477460 -0.000033 -0.367697
v 1.473421 0.009007 -0.386142
v 1.347011 -0.009074 -0.328461
v 1.350671 -0.000033 -0.311098
v 1.347011 0.009007 -0.328461
v 0.709797 -0.009074 -0.090797
v 0.710979 -0.000033 -0.077604
v 0.709797 0.009007 -0.090797
v 1.097903 -0.009074 -0.219421
v 1.100232 -0.000033 -0.204714
v 1.097902 0.009007 -0.219421
v 0.841668 -0.009074 -0.126220
v 0.843157 -0.000033 -0.112713
v 0.841668 0.009007 -0.126219
v 0.437990 -0.009074 -0.041413
v 0.438413 -0.000033 -0.028695
v 0.437990 0.009007 -0.041413
v 0.575495 -0.009074 -0.062602
v 0.576382 -0.000033 -0.049626
v 0.575495 0.009007 -0.062601
v 0.971065 -0.009074 -0.169202
v 0.972924 -0.000033 -0.155221
v 0.971065 0.009007 -0.169202
v 1.222553 -0.009074 -0.274785
v 1.225497 -0.000033 -0.258957
v 1.222553 0.009007 -0.274785
v 0.161749 0.018047 -0.039685
v 0.163556 0.018047 -0.074576
v 1.399987 -0.018114 -0.617651
v 1.463290 -0.018114 -0.426560
v 1.399987 0.018047 -0.617651
v 1.463290 0.018047 -0.426560
v 1.383507 -0.000033 -0.660505
v 1.337903 -0.018114 -0.366113
v 1.215186 -0.018114 -0.308853
v -0.041523 0.009007 0.192094
v -0.054142 -0.000033 0.192730
v -0.041523 -0.009074 0.192094
v 1.091933 -0.018114 -0.251068
v 0.966138 -0.018114 -0.199353
v 0.837544 -0.018114 -0.155433
v 0.706336 -0.018114 -0.119411
v 0.572652 -0.018114 -0.090815
v 0.436016 -0.018114 -0.069201
v 0.296903 -0.018114 -0.045964
v 1.253021 -0.000033 -0.607668
v 1.146369 -0.000033 -0.527520
v 1.034149 -0.000033 -0.451653
v 0.938461 -0.000033 -0.387349
v 0.812794 -0.000033 -0.332473
v 0.687305 -0.000033 -0.278252
v 0.557571 -0.000033 -0.236959
v 0.423984 -0.000033 -0.207610
v 0.282348 -0.000033 -0.193294
v 1.265434 0.018047 -0.573012
v 1.157547 0.018047 -0.492435
v 1.043992 0.018047 -0.416704
v 0.947158 0.018047 -0.352595
v 0.820544 0.018047 -0.297871
v 0.694262 0.018047 -0.243736
v 0.563827 0.018047 -0.202470
v 0.429467 0.018047 -0.173160
v 0.289609 0.018047 -0.150928
v 0.296903 0.018047 -0.045964
v 0.436016 0.018047 -0.069201
v 0.572652 0.018047 -0.090815
v 0.706336 0.018047 -0.119411
v 0.837545 0.018047 -0.155433
v 0.966138 0.018047 -0.199352
v 1.091933 0.018047 -0.251068
v 1.215186 0.018047 -0.308853
v 1.337903 0.018047 -0.366113
v 0.289609 -0.018114 -0.150928
v 0.429466 -0.018114 -0.173159
v 0.563826 -0.018114 -0.202470
v 0.694262 -0.018114 -0.243736
v 0.820543 -0.018114 -0.297871
v 0.947158 -0.018114 -0.352595
v 1.043991 -0.018114 -0.416705
v -0.109999 -0.009074 0.023603
v -0.112433 -0.000033 0.011205
v -0.109999 0.009007 0.023603
v -0.086992 0.001117 0.113349
v -0.100614 -0.018114 0.085394
v -0.103884 -0.018114 0.050609
v -0.103884 0.018047 0.050609
v -0.100614 0.018047 0.085394
v 0.012204 -0.018114 -0.048392
v -0.022574 -0.018114 -0.045056
v -0.050503 0.001117 -0.031380
v -0.022574 0.018047 -0.045056
v 0.012204 0.018047 -0.048392
v 0.039199 0.009007 -0.054559
v 0.051592 -0.000033 -0.057017
v 0.039199 -0.009074 -0.054559
v 0.032053 0.009007 0.033273
v 0.032664 -0.000033 0.045893
v 0.032053 -0.009074 0.033273
v 0.022299 0.001117 -0.058860
v 0.031724 -0.018114 -0.029226
v 0.029917 -0.018114 0.005665
v 0.029917 0.018047 0.005665
v 0.031724 0.018047 -0.029226
v -0.039119 0.018547 0.098397
v -0.004224 0.018547 0.100137
v 0.025392 0.001616 0.090654
v -0.004224 -0.017615 0.100137
v -0.039119 -0.017615 0.098397
v -0.066722 0.009506 0.100585
v -0.079341 0.000466 0.101221
v -0.066722 -0.008575 0.100585
vn -0.4536 0.8898 0.0492
vn 0.3355 -0.0020 0.9420
vn 0.3325 -0.0000 0.9431
vn 0.3355 0.0020 0.9420
vn -0.0108 -0.6098 0.7925
vn -0.6065 -0.0000 0.7951
vn -0.0108 0.6098 0.7925
vn -0.3197 -0.9366 0.1434
vn -0.9155 -0.0000 0.4024
vn -0.3197 0.9366 0.1434
vn -0.4290 -0.8973 0.1036
vn 0.1597 -0.9727 0.1685
vn 0.1454 -0.9886 -0.0388
vn -0.2135 -0.9697 0.1185
vn -0.8660 0.0309 0.4990
vn -0.9729 -0.0000 0.2311
vn -0.4290 0.8973 0.1036
vn -0.3762 -0.9129 0.1587
vn -0.9240 -0.0000 0.3825
vn -0.3762 0.9129 0.1587
vn -0.4163 -0.9004 0.1260
vn -0.9586 -0.0000 0.2848
vn -0.4163 0.9004 0.1260
vn -0.4449 -0.8927 0.0717
vn -0.9873 -0.0000 0.1592
vn -0.4449 0.8927 0.0717
vn -0.4386 -0.8950 0.0809
vn -0.9840 -0.0000 0.1783
vn -0.4386 0.8950 0.0809
vn -0.3990 -0.9052 0.1461
vn -0.9412 -0.0000 0.3379
vn -0.3990 0.9052 0.1461
vn -0.1938 -0.9689 0.1537
vn -0.1682 -0.9727 0.1600
vn -0.1771 -0.9710 0.1607
vn -0.1813 -0.9744 0.1332
vn -0.2015 -0.9715 0.1249
vn -0.2022 -0.9731 0.1104
vn -0.2113 -0.9732 0.0910
vn -0.2200 -0.9725 0.0761
vn -0.2007 -0.9721 0.1215
vn 0.0971 0.9932 -0.0638
vn 0.1077 0.9918 -0.0691
vn 0.1197 0.9900 -0.0742
vn 0.1297 0.9890 -0.0716
vn 0.1375 0.9883 -0.0655
vn 0.1434 0.9879 -0.0583
vn 0.1481 0.9877 -0.0509
vn 0.1489 0.9877 -0.0471
vn 0.1577 0.9866 -0.0409
vn -0.2003 0.9728 0.1163
vn -0.2200 0.9725 0.0761
vn -0.2113 0.9732 0.0910
vn -0.2022 0.9731 0.1104
vn -0.2015 0.9715 0.1249
vn -0.1813 0.9744 0.1332
vn -0.1771 0.9710 0.1607
vn -0.1682 0.9727 0.1600
vn -0.1938 0.9689 0.1537
vn -0.8874 -0.0014 0.4609
vn -0.9463 -0.0000 0.3234
vn -0.9167 -0.0000 0.3996
vn -0.8734 -0.0000 0.4871
vn -0.8496 -0.0000 0.5275
vn -0.7901 -0.0000 0.6129
vn -0.7401 -0.0000 0.6725
vn -0.7180 -0.0000 0.6961
vn -0.7957 -0.0000 0.6057
vn 0.1577 -0.9866 -0.0409
vn 0.1489 -0.9877 -0.0471
vn 0.1481 -0.9877 -0.0509
vn 0.1434 -0.9879 -0.0583
vn 0.1375 -0.9883 -0.0655
vn 0.1297 -0.9890 -0.0716
vn 0.1197 -0.9900 -0.0742
vn 0.1077 -0.9918 -0.0691
vn 0.0971 -0.9932 -0.0638
vn -0.9972 -0.0000 -0.0745
vn -0.2710 0.6185 -0.7376
vn -0.4359 0.7261 -0.5318
vn -0.2710 -0.6185 -0.7376
vn -0.4359 -0.7261 -0.5318
vn -0.3483 -0.9248 0.1528
vn -0.9174 -0.0000 0.3980
vn -0.3483 0.9248 0.1528
vn 0.0825 0.8965 0.4353
vn 0.1991 -0.0000 0.9800
vn 0.0825 -0.8965 0.4353
vn -0.1236 -0.9689 -0.2143
vn -0.1450 0.9891 0.0253
vn 0.2092 0.9740 -0.0863
vn 0.3543 -0.7261 0.5893
vn 0.1612 -0.6185 0.7691
vn 0.3543 0.7261 0.5893
vn 0.1612 0.6185 0.7691
vn 0.9759 -0.0000 0.2183
vn -0.1053 -0.9932 0.0490
vn -0.1166 -0.9918 0.0528
vn -0.1292 -0.9900 0.0560
vn -0.1924 0.9755 0.1068
vn 0.1454 0.9886 -0.0388
vn 0.1533 -0.9689 0.1941
vn -0.1387 -0.9890 0.0520
vn -0.1455 -0.9883 0.0449
vn -0.1504 -0.9879 0.0369
vn -0.1539 -0.9877 0.0289
vn -0.1542 -0.9877 0.0250
vn -0.1620 -0.9866 0.0176
vn 0.8751 -0.0000 -0.4839
vn 0.8113 -0.0000 -0.5846
vn -0.1151 -0.8948 -0.4314
vn -0.2611 -0.0000 -0.9653
vn -0.1151 0.8948 -0.4314
vn 0.3225 0.9248 -0.2017
vn 0.8500 -0.0000 -0.5267
vn 0.3225 -0.9248 -0.2017
vn 0.3736 0.9052 -0.2024
vn 0.8823 -0.0000 -0.4708
vn 0.3736 -0.9052 -0.2024
vn 0.4222 0.8950 -0.1436
vn 0.9477 -0.0000 -0.3191
vn 0.4222 -0.8950 -0.1436
vn 0.4298 0.8927 -0.1355
vn 0.9538 -0.0000 -0.3006
vn 0.4298 -0.8927 -0.1355
vn 0.3937 0.9004 -0.1850
vn 0.9072 -0.0000 -0.4207
vn 0.3937 -0.9004 -0.1850
vn 0.3492 0.9129 -0.2115
vn 0.8588 -0.0000 -0.5124
vn 0.3492 -0.9129 -0.2115
vn 0.4095 0.8973 -0.1647
vn 0.9292 -0.0000 -0.3697
vn 0.4095 -0.8973 -0.1647
vn 0.2955 0.9366 -0.1882
vn 0.8475 -0.0000 -0.5308
vn 0.2955 -0.9366 -0.1882
vn -0.1042 0.6098 -0.7857
vn 0.4848 -0.0000 -0.8746
vn -0.1042 -0.6098 -0.7857
vn -0.4685 0.0020 -0.8834
vn -0.4657 -0.0000 -0.8849
vn -0.4685 -0.0020 -0.8834
vn 0.4417 0.8898 -0.1145
vn 0.9687 -0.0000 -0.2483
vn 0.4417 -0.8898 -0.1145
vn -0.1136 -0.8898 -0.4419
vn -0.2464 -0.0000 -0.9692
vn -0.1136 0.8898 -0.4419
vn 0.4982 0.0309 0.8665
vn 0.1184 -0.9697 0.2137
vn -0.0387 -0.9886 -0.1454
vn -0.8843 -0.0020 0.4668
vn -0.8858 -0.0000 0.4640
vn -0.8843 0.0020 0.4668
vn -0.7859 -0.6098 0.1027
vn -0.8737 -0.0000 -0.4865
vn -0.7859 0.6098 0.1027
vn -0.1877 -0.9366 -0.2959
vn -0.5292 -0.0000 -0.8485
vn -0.1877 0.9366 -0.2959
vn -0.1639 -0.8973 -0.4098
vn -0.3679 -0.0000 -0.9299
vn -0.1639 0.8973 -0.4098
vn -0.2108 -0.9129 -0.3496
vn -0.5107 -0.0000 -0.8597
vn -0.2108 0.9129 -0.3496
vn -0.1843 -0.9004 -0.3940
vn -0.4190 -0.0000 -0.9080
vn -0.1843 0.9004 -0.3940
vn -0.1346 -0.8927 -0.4301
vn -0.2988 -0.0000 -0.9543
vn -0.1346 0.8927 -0.4301
vn -0.1428 -0.8950 -0.4225
vn -0.3172 -0.0000 -0.9483
vn -0.1428 0.8950 -0.4225
vn -0.2017 -0.9052 -0.3740
vn -0.4691 -0.0000 -0.8832
vn -0.2017 0.9052 -0.3740
vn -0.2011 -0.9248 -0.3229
vn -0.5251 -0.0000 -0.8510
vn -0.2011 0.9248 -0.3229
vn -0.0387 0.9886 -0.1454
vn 0.1067 0.9755 0.1926
vn -0.5326 -0.7261 0.4349
vn -0.7381 -0.6185 0.2696
vn -0.5326 0.7261 0.4349
vn -0.7381 0.6185 0.2696
vn -0.0764 -0.0000 0.9971
vn -0.0636 -0.9932 -0.0972
vn -0.0689 -0.9918 -0.1078
vn 0.4314 0.8947 -0.1156
vn 0.9651 -0.0000 -0.2620
vn 0.4314 -0.8947 -0.1156
vn -0.0739 -0.9900 -0.1198
vn -0.0713 -0.9890 -0.1298
vn -0.0653 -0.9883 -0.1376
vn -0.0580 -0.9879 -0.1435
vn -0.0506 -0.9877 -0.1482
vn -0.0468 -0.9877 -0.1490
vn -0.0406 -0.9866 -0.1578
vn 0.6041 -0.0000 0.7969
vn 0.6947 -0.0000 0.7193
vn 0.6711 -0.0000 0.7414
vn 0.6114 -0.0000 0.7913
vn 0.5259 -0.0000 0.8506
vn 0.4854 -0.0000 0.8743
vn 0.3978 -0.0000 0.9175
vn 0.3216 -0.0000 0.9469
vn 0.4592 -0.0014 0.8883
vn 0.1533 0.9689 0.1941
vn 0.1597 0.9727 0.1685
vn 0.1604 0.9710 0.1774
vn 0.1329 0.9744 0.1815
vn 0.1245 0.9715 0.2017
vn 0.1100 0.9731 0.2024
vn 0.0906 0.9732 0.2115
vn 0.0757 0.9725 0.2202
vn 0.1160 0.9728 0.2005
vn -0.0406 0.9866 -0.1578
vn -0.0468 0.9877 -0.1490
vn -0.0506 0.9877 -0.1482
vn -0.0580 0.9879 -0.1435
vn -0.0653 0.9883 -0.1376
vn -0.0713 0.9890 -0.1298
vn -0.0740 0.9900 -0.1198
vn -0.0689 0.9918 -0.1078
vn -0.0636 0.9932 -0.0972
vn 0.1211 -0.9721 0.2010
vn 0.0757 -0.9725 0.2202
vn 0.0906 -0.9732 0.2115
vn 0.1100 -0.9731 0.2024
vn 0.1245 -0.9715 0.2017
vn 0.1329 -0.9744 0.1815
vn 0.1604 -0.9710 0.1774
vn 0.8297 -0.0000 -0.5581
vn 0.8706 -0.0000 -0.4919
vn 0.9170 -0.0000 -0.3988
vn 0.9347 -0.0000 -0.3553
vn 0.9649 -0.0000 -0.2625
vn 0.9831 -0.0000 -0.1828
vn 0.9449 -0.0014 -0.3274
vn 0.2140 0.9689 -0.1240
vn 0.1896 0.9727 -0.1340
vn 0.1986 0.9710 -0.1333
vn 0.1987 0.9744 -0.1055
vn 0.2175 0.9715 -0.0944
vn 0.2161 0.9731 -0.0799
vn 0.2223 0.9732 -0.0594
vn 0.2287 0.9725 -0.0434
vn 0.2151 0.9728 -0.0861
vn -0.1620 0.9866 0.0176
vn -0.1542 0.9877 0.0250
vn -0.1539 0.9877 0.0289
vn -0.1504 0.9879 0.0369
vn -0.1455 0.9883 0.0449
vn -0.1387 0.9890 0.0520
vn -0.1292 0.9900 0.0560
vn -0.1166 0.9918 0.0528
vn -0.1053 0.9932 0.0490
vn 0.2162 -0.9721 -0.0911
vn 0.2287 -0.9725 -0.0434
vn 0.2223 -0.9732 -0.0594
vn 0.2161 -0.9731 -0.0799
vn 0.2175 -0.9715 -0.0944
vn 0.1987 -0.9744 -0.1055
vn 0.1986 -0.9710 -0.1333
vn 0.1896 -0.9727 -0.1340
vn 0.2140 -0.9689 -0.1240
vn 0.9125 0.0287 -0.4081
vn 0.2312 -0.9677 -0.1004
vn -0.1450 -0.9892 0.0196
vn -0.1336 -0.9727 -0.1898
vn -0.9944 -0.0000 0.1053
vn -0.4536 -0.8898 0.0492
vn 0.0484 -0.8898 0.4537
vn 0.1034 -0.0000 0.9946
vn 0.0484 0.8898 0.4537
vn -0.4357 0.0296 -0.8996
vn -0.1076 -0.9663 -0.2340
vn 0.0258 -0.9896 0.1416
vn 0.9427 -0.0020 -0.3337
vn 0.9437 -0.0000 -0.3307
vn 0.9427 0.0020 -0.3337
vn 0.7925 -0.6098 0.0123
vn 0.7939 -0.0000 0.6080
vn 0.7925 0.6098 0.0123
vn 0.1428 -0.9366 0.3199
vn 0.4006 -0.0000 0.9162
vn 0.1428 0.9366 0.3199
vn 0.1028 -0.8973 0.4292
vn 0.2292 -0.0000 0.9734
vn 0.1028 0.8973 0.4292
vn 0.1579 -0.9129 0.3765
vn 0.3807 -0.0000 0.9247
vn 0.1579 0.9129 0.3765
vn 0.1252 -0.9004 0.4166
vn 0.2829 -0.0000 0.9591
vn 0.1252 0.9004 0.4166
vn 0.0709 -0.8927 0.4450
vn 0.1573 -0.0000 0.9876
vn 0.0709 0.8927 0.4450
vn 0.0801 -0.8950 0.4387
vn 0.1764 -0.0000 0.9843
vn 0.0801 0.8950 0.4388
vn 0.1454 -0.9052 0.3993
vn 0.3361 -0.0000 0.9418
vn 0.1454 0.9052 0.3993
vn 0.1521 -0.9248 0.3486
vn 0.3962 -0.0000 0.9182
vn 0.1521 0.9248 0.3486
vn 0.0258 0.9896 0.1416
vn -0.0970 0.9726 -0.2111
vn 0.5900 -0.7261 -0.3531
vn 0.7694 -0.6185 -0.1597
vn 0.5900 0.7261 -0.3531
vn 0.7694 0.6185 -0.1597
vn 0.2202 -0.0000 -0.9755
vn 0.0488 -0.9932 0.1054
vn 0.0526 -0.9918 0.1167
vn -0.4388 0.8957 0.0720
vn -0.9864 -0.0017 0.1645
vn -0.4390 -0.8960 0.0671
vn 0.0558 -0.9900 0.1293
vn 0.0517 -0.9890 0.1388
vn 0.0446 -0.9883 0.1456
vn 0.0366 -0.9879 0.1504
vn 0.0286 -0.9877 0.1540
vn 0.0248 -0.9877 0.1542
vn 0.0173 -0.9866 0.1620
vn -0.4822 -0.0000 -0.8760
vn -0.5831 -0.0000 -0.8124
vn -0.5565 -0.0000 -0.8308
vn -0.4902 -0.0000 -0.8716
vn -0.3970 -0.0000 -0.9178
vn -0.3535 -0.0000 -0.9354
vn -0.2606 -0.0000 -0.9654
vn -0.1810 -0.0000 -0.9835
vn -0.3256 -0.0014 -0.9455
vn -0.1236 0.9689 -0.2143
vn -0.1336 0.9727 -0.1898
vn -0.1330 0.9710 -0.1988
vn -0.1051 0.9744 -0.1989
vn -0.0940 0.9715 -0.2176
vn -0.0795 0.9731 -0.2162
vn -0.0590 0.9732 -0.2224
vn -0.0430 0.9725 -0.2288
vn -0.0857 0.9728 -0.2152
vn 0.0173 0.9866 0.1620
vn 0.0248 0.9877 0.1542
vn 0.0286 0.9877 0.1540
vn 0.0366 0.9879 0.1504
vn 0.0446 0.9883 0.1456
vn 0.0517 0.9890 0.1388
vn 0.0558 0.9900 0.1293
vn 0.0526 0.9918 0.1167
vn 0.0488 0.9932 0.1054
vn -0.0907 -0.9721 -0.2164
vn -0.0430 -0.9725 -0.2288
vn -0.0590 -0.9732 -0.2224
vn -0.0795 -0.9731 -0.2162
vn -0.0940 -0.9715 -0.2176
vn -0.1051 -0.9744 -0.1989
vn -0.1330 -0.9710 -0.1988
vn -0.1508 -0.8861 -0.4384
vn -0.3253 -0.0000 -0.9456
vn -0.1508 0.8861 -0.4384
vn 0.3252 0.0258 0.9453
vn 0.0860 -0.9644 0.2500
vn -0.0572 -0.9844 -0.1663
vn -0.0572 0.9844 -0.1663
vn 0.0777 0.9710 0.2259
vn 0.1661 -0.9845 -0.0571
vn -0.2503 -0.9643 0.0861
vn -0.9453 0.0257 0.3252
vn -0.2262 0.9710 0.0778
vn 0.1661 0.9845 -0.0571
vn 0.4382 0.8862 -0.1507
vn 0.9456 -0.0000 -0.3253
vn 0.4382 -0.8862 -0.1507
vn 0.1579 0.8743 0.4589
vn 0.3253 -0.0000 0.9456
vn 0.1579 -0.8743 0.4589
vn -0.3252 0.0280 -0.9452
vn -0.0787 -0.9703 -0.2287
vn 0.0636 -0.9807 0.1849
vn 0.0636 0.9807 0.1849
vn -0.0710 0.9759 -0.2064
vn -0.1793 0.9823 0.0547
vn 0.2191 0.9741 -0.0550
vn 0.9637 0.0298 -0.2652
vn 0.2420 -0.9676 -0.0719
vn -0.1798 -0.9827 0.0442
vn -0.4569 0.8799 0.1306
vn -0.9641 0.0023 0.2655
vn -0.4583 -0.8804 0.1214
s 1
f 168//168 178//178 169//169
f 189//189 154//154 155//155
f 201//201 171//171 147//147
f 178//178 170//170 169//169
f 189//189 153//153 154//154
f 147//147 172//172 148//148
f 198//198 168//168 162//162
f 268//268 97//97 98//98
f 172//172 149//149 148//148
f 162//162 169//169 163//163
f 257//257 247//247 256//256
f 201//201 111//111 152//152
f 169//169 164//164 163//163
f 241//241 263//263 262//262
f 147//147 112//112 111//111
f 199//199 162//162 174//174
f 112//112 149//149 113//113
f 174//174 163//163 175//175
f 190//190 156//156 159//159
f 163//163 176//176 175//175
f 159//159 157//157 160//160
f 200//200 174//174 171//171
f 157//157 161//161 160//160
f 171//171 175//175 172//172
f 155//155 186//186 185//185
f 175//175 173//173 172//172
f 154//154 156//156 155//155
f 153//153 188//188 158//158
f 154//154 158//158 157//157
f 78//78 33//33 68//68
f 189//189 155//155 185//185
f 78//78 80//80 143//143
f 143//143 79//79 138//138
f 138//138 42//42 135//135
f 59//59 78//78 68//68
f 33//33 81//81 77//77
f 79//79 59//59 42//42
f 50//50 100//100 101//101
f 49//49 51//51 50//50
f 48//48 52//52 49//49
f 47//47 53//53 48//48
f 46//46 54//54 47//47
f 45//45 55//55 46//46
f 44//44 56//56 45//45
f 43//43 57//57 44//44
f 42//42 58//58 43//43
f 14//14 69//69 13//13
f 41//41 70//70 69//69
f 40//40 71//71 70//70
f 39//39 72//72 71//71
f 38//38 73//73 72//72
f 37//37 74//74 73//73
f 36//36 75//75 74//74
f 35//35 76//76 75//75
f 34//34 77//77 76//76
f 51//51 15//15 100//100
f 51//51 61//61 60//60
f 53//53 61//61 52//52
f 54//54 62//62 53//53
f 55//55 63//63 54//54
f 56//56 64//64 55//55
f 57//57 65//65 56//56
f 58//58 66//66 57//57
f 59//59 67//67 58//58
f 192//192 50//50 101//101
f 123//123 50//50 144//144
f 120//120 49//49 123//123
f 132//132 48//48 120//120
f 126//126 47//47 132//132
f 117//117 46//46 126//126
f 129//129 45//45 117//117
f 114//114 44//44 129//129
f 135//135 43//43 114//114
f 15//15 41//41 14//14
f 61//61 41//41 60//60
f 61//61 39//39 40//40
f 62//62 38//38 39//39
f 63//63 37//37 38//38
f 64//64 36//36 37//37
f 65//65 35//35 36//36
f 66//66 34//34 35//35
f 67//67 33//33 34//34
f 76//76 137//137 116//116
f 116//116 136//136 115//115
f 136//136 114//114 115//115
f 75//75 116//116 131//131
f 131//131 115//115 130//130
f 115//115 129//129 130//130
f 74//74 131//131 119//119
f 119//119 130//130 118//118
f 130//130 117//117 118//118
f 73//73 119//119 128//128
f 128//128 118//118 127//127
f 118//118 126//126 127//127
f 72//72 128//128 134//134
f 134//134 127//127 133//133
f 127//127 132//132 133//133
f 71//71 134//134 122//122
f 122//122 133//133 121//121
f 133//133 120//120 121//121
f 70//70 122//122 125//125
f 125//125 121//121 124//124
f 121//121 123//123 124//124
f 69//69 125//125 146//146
f 146//146 124//124 145//145
f 124//124 144//144 145//145
f 69//69 194//194 13//13
f 146//146 193//193 194//194
f 193//193 144//144 192//192
f 77//77 140//140 137//137
f 137//137 139//139 136//136
f 139//139 135//135 136//136
f 141//141 81//81 82//82
f 142//142 140//140 141//141
f 142//142 138//138 139//139
f 78//78 141//141 82//82
f 78//78 142//142 141//141
f 78//78 143//143 142//142
f 260//260 244//244 259//259
f 196//196 165//165 177//177
f 166//166 179//179 178//178
f 254//254 250//250 253//253
f 177//177 166//166 178//178
f 197//197 177//177 168//168
f 158//158 228//228 161//161
f 189//189 102//102 202//202
f 189//189 187//187 153//153
f 7//7 260//260 10//10
f 227//227 213//213 226//226
f 151//151 201//201 152//152
f 263//263 105//105 106//106
f 160//160 182//182 181//181
f 165//165 181//181 166//166
f 256//256 248//248 255//255
f 228//228 212//212 227//227
f 229//229 200//200 201//201
f 32//32 256//256 23//23
f 195//195 180//180 165//165
f 181//181 167//167 166//166
f 318//318 284//284 314//314
f 225//225 215//215 224//224
f 226//226 214//214 225//225
f 266//266 99//99 103//103
f 191//191 159//159 180//180
f 180//180 160//160 181//181
f 261//261 107//107 108//108
f 223//223 217//217 222//222
f 224//224 216//216 223//223
f 269//269 93//93 97//97
f 204//204 12//12 235//235
f 203//203 102//102 12//12
f 96//96 94//94 2//2
f 221//221 219//219 220//220
f 222//222 218//218 221//221
f 85//85 258//258 20//20
f 206//206 234//234 233//233
f 205//205 235//235 234//234
f 262//262 106//106 107//107
f 188//188 211//211 228//228
f 220//220 184//184 183//183
f 95//95 243//243 260//260
f 208//208 232//232 231//231
f 207//207 233//233 232//232
f 236//236 268//268 267//267
f 211//211 189//189 202//202
f 102//102 186//186 190//190
f 84//84 20//20 19//19
f 167//167 225//225 179//179
f 161//161 227//227 182//182
f 240//240 264//264 263//263
f 209//209 229//229 210//210
f 209//209 231//231 230//230
f 264//264 104//104 105//105
f 176//176 221//221 173//173
f 170//170 223//223 164//164
f 248//248 240//240 249//249
f 182//182 226//226 167//167
f 150//150 229//229 151//151
f 18//18 84//84 19//19
f 212//212 204//204 213//213
f 113//113 220//220 183//183
f 252//252 91//91 90//90
f 164//164 222//222 176//176
f 179//179 224//224 170//170
f 239//239 265//265 264//264
f 216//216 208//208 217//217
f 214//214 206//206 215//215
f 251//251 241//241 242//242
f 211//211 203//203 212//212
f 173//173 220//220 149//149
f 271//271 108//108 272//272
f 12//12 190//190 191//191
f 219//219 209//209 210//210
f 258//258 246//246 257//257
f 215//215 207//207 216//216
f 213//213 205//205 214//214
f 251//251 270//270 91//91
f 230//230 199//199 200//200
f 231//231 198//198 199//199
f 253//253 251//251 252//252
f 219//219 150//150 184//184
f 217//217 209//209 218//218
f 103//103 18//18 30//30
f 235//235 191//191 195//195
f 234//234 195//195 196//196
f 10//10 259//259 85//85
f 233//233 196//196 197//197
f 232//232 197//197 198//198
f 241//241 261//261 242//242
f 238//238 266//266 265//265
f 327//327 297//297 291//291
f 243//243 96//96 109//109
f 244//244 236//236 245//245
f 246//246 238//238 247//247
f 301//301 278//278 277//277
f 304//304 302//302 301//301
f 83//83 9//9 84//84
f 243//243 110//110 244//244
f 318//318 282//282 283//283
f 276//276 301//301 277//277
f 98//98 8//8 83//83
f 245//245 237//237 246//246
f 330//330 300//300 276//276
f 307//307 299//299 298//298
f 283//283 287//287 286//286
f 96//96 269//269 109//109
f 297//297 307//307 298//298
f 318//318 283//283 284//284
f 292//292 305//305 304//304
f 329//329 303//303 300//300
f 20//20 257//257 32//32
f 17//17 254//254 29//29
f 328//328 291//291 303//303
f 303//303 292//292 304//304
f 270//270 261//261 271//271
f 237//237 267//267 266//266
f 249//249 241//241 250//250
f 321//321 252//252 90//90
f 330//330 88//88 281//281
f 298//298 293//293 292//292
f 267//267 98//98 99//99
f 255//255 249//249 254//254
f 26//26 252//252 1//1
f 2//2 95//95 7//7
f 300//300 304//304 301//301
f 29//29 253//253 26//26
f 265//265 103//103 104//104
f 247//247 239//239 248//248
f 87//87 278//278 86//86
f 288//288 286//286 289//289
f 284//284 315//315 314//314
f 259//259 245//245 258//258
f 110//110 269//269 268//268
f 291//291 298//298 292//292
f 319//319 285//285 288//288
f 286//286 290//290 289//289
f 283//283 285//285 284//284
f 282//282 317//317 287//287
f 23//23 255//255 17//17
f 276//276 87//87 88//88
f 9//9 85//85 84//84
f 99//99 83//83 18//18
f 30//30 19//19 31//31
f 19//19 32//32 31//31
f 104//104 30//30 21//21
f 21//21 31//31 22//22
f 31//31 23//23 22//22
f 105//105 21//21 11//11
f 11//11 22//22 16//16
f 22//22 17//17 16//16
f 106//106 11//11 27//27
f 27//27 16//16 28//28
f 16//16 29//29 28//28
f 107//107 27//27 24//24
f 24//24 28//28 25//25
f 28//28 26//26 25//25
f 108//108 24//24 275//275
f 275//275 25//25 274//274
f 25//25 1//1 274//274
f 108//108 323//323 272//272
f 275//275 322//322 323//323
f 322//322 1//1 321//321
f 97//97 5//5 8//8
f 8//8 6//6 9//9
f 6//6 10//10 9//9
f 4//4 93//93 92//92
f 3//3 5//5 4//4
f 3//3 7//7 6//6
f 96//96 4//4 92//92
f 96//96 3//3 4//4
f 96//96 2//2 3//3
f 325//325 294//294 306//306
f 295//295 308//308 307//307
f 306//306 295//295 307//307
f 326//326 306//306 297//297
f 287//287 357//357 290//290
f 318//318 89//89 331//331
f 318//318 316//316 282//282
f 356//356 342//342 355//355
f 280//280 330//330 281//281
f 289//289 311//311 310//310
f 294//294 310//310 295//295
f 357//357 341//341 356//356
f 358//358 329//329 330//330
f 324//324 309//309 294//294
f 310//310 296//296 295//295
f 354//354 344//344 353//353
f 355//355 343//343 354//354
f 320//320 288//288 309//309
f 309//309 289//289 310//310
f 352//352 346//346 351//351
f 353//353 345//345 352//352
f 333//333 273//273 364//364
f 332//332 89//89 273//273
f 350//350 348//348 349//349
f 351//351 347//347 350//350
f 335//335 363//363 362//362
f 334//334 364//364 363//363
f 317//317 340//340 357//357
f 349//349 313//313 312//312
f 337//337 361//361 360//360
f 336//336 362//362 361//361
f 340//340 318//318 331//331
f 89//89 315//315 319//319
f 296//296 354//354 308//308
f 290//290 356//356 311//311
f 338//338 358//358 339//339
f 338//338 360//360 359//359
f 305//305 350//350 302//302
f 299//299 352//352 293//293
f 311//311 355//355 296//296
f 279//279 358//358 280//280
f 341//341 333//333 342//342
f 86//86 349//349 312//312
f 293//293 351//351 305//305
f 308//308 353//353 299//299
f 345//345 337//337 346//346
f 343//343 335//335 344//344
f 340//340 332//332 341//341
f 302//302 349//349 278//278
f 273//273 319//319 320//320
f 348//348 338//338 339//339
f 344//344 336//336 345//345
f 342//342 334//334 343//343
f 359//359 328//328 329//329
f 360//360 327//327 328//328
f 348//348 279//279 313//313
f 346//346 338//338 347//347
f 364//364 320//320 324//324
f 363//363 324//324 325//325
f 362//362 325//325 326//326
f 361//361 326//326 327//327
f 367//367 112//112 113//113
f 112//112 365//365 111//111
f 150//150 372//372 184//184
f 152//152 369//369 151//151
f 372//372 183//183 184//184
f 371//371 113//113 183//183
f 111//111 370//370 152//152
f 369//369 150//150 151//151
f 193//193 380//380 194//194
f 377//377 192//192 101//101
f 13//13 374//374 14//14
f 378//378 193//193 192//192
f 194//194 373//373 13//13
f 15//15 376//376 100//100
f 374//374 15//15 14//14
f 376//376 101//101 100//100
f 384//384 313//313 279//279
f 381//381 87//87 86//86
f 281//281 385//385 280//280
f 388//388 312//312 313//313
f 387//387 86//86 312//312
f 88//88 386//386 281//281
f 280//280 384//384 279//279
f 87//87 383//383 88//88
f 322//322 396//396 323//323
f 389//389 321//321 90//90
f 390//390 90//90 91//91
f 270//270 390//390 91//91
f 272//272 392//392 271//271
f 323//323 393//393 272//272
f 394//394 322//322 321//321
f 392//392 270//270 271//271
f 168//168 177//177 178//178
f 201//201 200//200 171//171
f 178//178 179//179 170//170
f 147//147 171//171 172//172
f 198//198 197//197 168//168
f 268//268 269//269 97//97
f 172//172 173//173 149//149
f 162//162 168//168 169//169
f 257//257 246//246 247//247
f 201//201 147//147 111//111
f 169//169 170//170 164//164
f 241//241 240//240 263//263
f 147//147 148//148 112//112
f 199//199 198//198 162//162
f 112//112 148//148 149//149
f 174//174 162//162 163//163
f 190//190 186//186 156//156
f 163//163 164//164 176//176
f 159//159 156//156 157//157
f 200//200 199//199 174//174
f 157//157 158//158 161//161
f 171//171 174//174 175//175
f 155//155 156//156 186//186
f 175//175 176//176 173//173
f 154//154 157//157 156//156
f 153//153 187//187 188//188
f 154//154 153//153 158//158
f 78//78 82//82 33//33
f 143//143 80//80 79//79
f 138//138 79//79 42//42
f 59//59 80//80 78//78
f 33//33 82//82 81//81
f 79//79 80//80 59//59
f 50//50 51//51 100//100
f 49//49 52//52 51//51
f 48//48 53//53 52//52
f 47//47 54//54 53//53
f 46//46 55//55 54//54
f 45//45 56//56 55//55
f 44//44 57//57 56//56
f 43//43 58//58 57//57
f 42//42 59//59 58//58
f 14//14 41//41 69//69
f 41//41 40//40 70//70
f 40//40 39//39 71//71
f 39//39 38//38 72//72
f 38//38 37//37 73//73
f 37//37 36//36 74//74
f 36//36 35//35 75//75
f 35//35 34//34 76//76
f 34//34 33//33 77//77
f 51//51 60//60 15//15
f 51//51 52//52 61//61
f 53//53 62//62 61//61
f 54//54 63//63 62//62
f 55//55 64//64 63//63
f 56//56 65//65 64//64
f 57//57 66//66 65//65
f 58//58 67//67 66//66
f 59//59 68//68 67//67
f 192//192 144//144 50//50
f 123//123 49//49 50//50
f 120//120 48//48 49//49
f 132//132 47//47 48//48
f 126//126 46//46 47//47
f 117//117 45//45 46//46
f 129//129 44//44 45//45
f 114//114 43//43 44//44
f 135//135 42//42 43//43
f 15//15 60//60 41//41
f 61//61 40//40 41//41
f 61//61 62//62 39//39
f 62//62 63//63 38//38
f 63//63 64//64 37//37
f 64//64 65//65 36//36
f 65//65 66//66 35//35
f 66//66 67//67 34//34
f 67//67 68//68 33//33
f 76//76 77//77 137//137
f 116//116 137//137 136//136
f 136//136 135//135 114//114
f 75//75 76//76 116//116
f 131//131 116//116 115//115
f 115//115 114//114 129//129
f 74//74 75//75 131//131
f 119//119 131//131 130//130
f 130//130 129//129 117//117
f 73//73 74//74 119//119
f 128//128 119//119 118//118
f 118//118 117//117 126//126
f 72//72 73//73 128//128
f 134//134 128//128 127//127
f 127//127 126//126 132//132
f 71//71 72//72 134//134
f 122//122 134//134 133//133
f 133//133 132//132 120//120
f 70//70 71//71 122//122
f 125//125 122//122 121//121
f 121//121 120//120 123//123
f 69//69 70//70 125//125
f 146//146 125//125 124//124
f 124//124 123//123 144//144
f 69//69 146//146 194//194
f 146//146 145//145 193//193
f 193//193 145//145 144//144
f 77//77 81//81 140//140
f 137//137 140//140 139//139
f 139//139 138//138 135//135
f 141//141 140//140 81//81
f 142//142 139//139 140//140
f 142//142 143//143 138//138
f 260//260 243//243 244//244
f 196//196 195//195 165//165
f 166//166 167//167 179//179
f 254//254 249//249 250//250
f 177//177 165//165 166//166
f 197//197 196//196 177//177
f 158//158 188//188 228//228
f 189//189 185//185 102//102
f 7//7 95//95 260//260
f 227//227 212//212 213//213
f 151//151 229//229 201//201
f 263//263 264//264 105//105
f 160//160 161//161 182//182
f 165//165 180//180 181//181
f 256//256 247//247 248//248
f 228//228 211//211 212//212
f 229//229 230//230 200//200
f 32//32 257//257 256//256
f 195//195 191//191 180//180
f 181//181 182//182 167//167
f 225//225 214//214 215//215
f 226//226 213//213 214//214
f 266//266 267//267 99//99
f 191//191 190//190 159//159
f 180//180 159//159 160//160
f 261//261 262//262 107//107
f 223//223 216//216 217//217
f 224//224 215//215 216//216
f 269//269 92//92 93//93
f 204//204 203//203 12//12
f 203//203 202//202 102//102
f 221//221 218//218 219//219
f 222//222 217//217 218//218
f 85//85 259//259 258//258
f 206//206 205//205 234//234
f 205//205 204//204 235//235
f 262//262 263//263 106//106
f 188//188 187//187 211//211
f 220//220 219//219 184//184
f 95//95 94//94 243//243
f 208//208 207//207 232//232
f 207//207 206//206 233//233
f 236//236 110//110 268//268
f 211//211 187//187 189//189
f 102//102 185//185 186//186
f 84//84 85//85 20//20
f 167//167 226//226 225//225
f 161//161 228//228 227//227
f 240//240 239//239 264//264
f 209//209 230//230 229//229
f 209//209 208//208 231//231
f 264//264 265//265 104//104
f 176//176 222//222 221//221
f 170//170 224//224 223//223
f 248//248 239//239 240//240
f 182//182 227//227 226//226
f 150//150 210//210 229//229
f 18//18 83//83 84//84
f 212//212 203//203 204//204
f 113//113 149//149 220//220
f 252//252 251//251 91//91
f 164//164 223//223 222//222
f 179//179 225//225 224//224
f 239//239 238//238 265//265
f 216//216 207//207 208//208
f 214//214 205//205 206//206
f 251//251 250//250 241//241
f 211//211 202//202 203//203
f 173//173 221//221 220//220
f 271//271 261//261 108//108
f 12//12 102//102 190//190
f 219//219 218//218 209//209
f 258//258 245//245 246//246
f 215//215 206//206 207//207
f 213//213 204//204 205//205
f 251//251 242//242 270//270
f 230//230 231//231 199//199
f 231//231 232//232 198//198
f 253//253 250//250 251//251
f 219//219 210//210 150//150
f 217//217 208//208 209//209
f 103//103 99//99 18//18
f 235//235 12//12 191//191
f 234//234 235//235 195//195
f 10//10 260//260 259//259
f 233//233 234//234 196//196
f 232//232 233//233 197//197
f 241//241 262//262 261//261
f 238//238 237//237 266//266
f 327//327 326//326 297//297
f 243//243 94//94 96//96
f 244//244 110//110 236//236
f 246//246 237//237 238//238
f 301//301 302//302 278//278
f 304//304 305//305 302//302
f 83//83 8//8 9//9
f 243//243 109//109 110//110
f 276//276 300//300 301//301
f 98//98 97//97 8//8
f 245//245 236//236 237//237
f 330//330 329//329 300//300
f 307//307 308//308 299//299
f 283//283 282//282 287//287
f 96//96 92//92 269//269
f 297//297 306//306 307//307
f 292//292 293//293 305//305
f 329//329 328//328 303//303
f 20//20 258//258 257//257
f 17//17 255//255 254//254
f 328//328 327//327 291//291
f 303//303 291//291 292//292
f 270//270 242//242 261//261
f 237//237 236//236 267//267
f 249//249 240//240 241//241
f 321//321 1//1 252//252
f 330//330 276//276 88//88
f 298//298 299//299 293//293
f 267//267 268//268 98//98
f 255//255 248//248 249//249
f 26//26 253//253 252//252
f 2//2 94//94 95//95
f 300//300 303//303 304//304
f 29//29 254//254 253//253
f 265//265 266//266 103//103
f 247//247 238//238 239//239
f 87//87 277//277 278//278
f 288//288 285//285 286//286
f 284//284 285//285 315//315
f 259//259 244//244 245//245
f 110//110 109//109 269//269
f 291//291 297//297 298//298
f 319//319 315//315 285//285
f 286//286 287//287 290//290
f 283//283 286//286 285//285
f 282//282 316//316 317//317
f 23//23 256//256 255//255
f 276//276 277//277 87//87
f 9//9 10//10 85//85
f 99//99 98//98 83//83
f 30//30 18//18 19//19
f 19//19 20//20 32//32
f 104//104 103//103 30//30
f 21//21 30//30 31//31
f 31//31 32//32 23//23
f 105//105 104//104 21//21
f 11//11 21//21 22//22
f 22//22 23//23 17//17
f 106//106 105//105 11//11
f 27//27 11//11 16//16
f 16//16 17//17 29//29
f 107//107 106//106 27//27
f 24//24 27//27 28//28
f 28//28 29//29 26//26
f 108//108 107//107 24//24
f 275//275 24//24 25//25
f 25//25 26//26 1//1
f 108//108 275//275 323//323
f 275//275 274//274 322//322
f 322//322 274//274 1//1
f 97//97 93//93 5//5
f 8//8 5//5 6//6
f 6//6 7//7 10//10
f 4//4 5//5 93//93
f 3//3 6//6 5//5
f 3//3 2//2 7//7
f 325//325 324//324 294//294
f 295//295 296//296 308//308
f 306//306 294//294 295//295
f 326//326 325//325 306//306
f 287//287 317//317 357//357
f 318//318 314//314 89//89
f 356//356 341//341 342//342
f 280//280 358//358 330//330
f 289//289 290//290 311//311
f 294//294 309//309 310//310
f 357//357 340//340 341//341
f 358//358 359//359 329//329
f 324//324 320//320 309//309
f 310//310 311//311 296//296
f 354//354 343//343 344//344
f 355//355 342//342 343//343
f 320//320 319//319 288//288
f 309//309 288//288 289//289
f 352//352 345//345 346//346
f 353//353 344//344 345//345
f 333//333 332//332 273//273
f 332//332 331//331 89//89
f 350//350 347//347 348//348
f 351//351 346//346 347//347
f 335//335 334//334 363//363
f 334//334 333//333 364//364
f 317//317 316//316 340//340
f 349//349 348//348 313//313
f 337//337 336//336 361//361
f 336//336 335//335 362//362
f 340//340 316//316 318//318
f 89//89 314//314 315//315
f 296//296 355//355 354//354
f 290//290 357//357 356//356
f 338//338 359//359 358//358
f 338//338 337//337 360//360
f 305//305 351//351 350//350
f 299//299 353//353 352//352
f 311//311 356//356 355//355
f 279//279 339//339 358//358
f 341//341 332//332 333//333
f 86//86 278//278 349//349
f 293//293 352//352 351//351
f 308//308 354//354 353//353
f 345//345 336//336 337//337
f 343//343 334//334 335//335
f 340//340 331//331 332//332
f 302//302 350//350 349//349
f 273//273 89//89 319//319
f 348//348 347//347 338//338
f 344//344 335//335 336//336
f 342//342 333//333 334//334
f 359//359 360//360 328//328
f 360//360 361//361 327//327
f 348//348 339//339 279//279
f 346//346 337//337 338//338
f 364//364 273//273 320//320
f 363//363 364//364 324//324
f 362//362 363//363 325//325
f 361//361 362//362 326//326
f 367//367 366//366 112//112
f 112//112 366//366 365//365
f 150//150 368//368 372//372
f 152//152 370//370 369//369
f 372//372 371//371 183//183
f 371//371 367//367 113//113
f 111//111 365//365 370//370
f 369//369 368//368 150//150
f 193//193 379//379 380//380
f 377//377 378//378 192//192
f 13//13 373//373 374//374
f 378//378 379//379 193//193
f 194//194 380//380 373//373
f 15//15 375//375 376//376
f 374//374 375//375 15//15
f 376//376 377//377 101//101
f 384//384 388//388 313//313
f 381//381 382//382 87//87
f 281//281 386//386 385//385
f 388//388 387//387 312//312
f 387//387 381//381 86//86
f 88//88 383//383 386//386
f 280//280 385//385 384//384
f 87//87 382//382 383//383
f 322//322 395//395 396//396
f 389//389 394//394 321//321
f 390//390 389//389 90//90
f 270//270 391//391 390//390
f 272//272 393//393 392//392
f 323//323 396//396 393//393
f 394//394 395//395 322//322
f 392//392 391//391 270//270
